<?xml version="1.0" encoding="UTF-8" standalone="no"?>
<!-- Created with Inkscape (http://www.inkscape.org/) -->

<svg
   xmlns:dc="http://purl.org/dc/elements/1.1/"
   xmlns:cc="http://creativecommons.org/ns#"
   xmlns:rdf="http://www.w3.org/1999/02/22-rdf-syntax-ns#"
   xmlns:svg="http://www.w3.org/2000/svg"
   xmlns="http://www.w3.org/2000/svg"
   xmlns:sodipodi="http://sodipodi.sourceforge.net/DTD/sodipodi-0.dtd"
   xmlns:inkscape="http://www.inkscape.org/namespaces/inkscape"
   width="64"
   height="64"
   id="svg2"
   version="1.1"
   inkscape:version="0.48.5 r10040"
   sodipodi:docname="BirdButtonImage.svg"
   inkscape:export-filename="/home/cg/programming/orders/res/BirdButtonImage.png"
   inkscape:export-xdpi="180"
   inkscape:export-ydpi="180">
  <defs
     id="defs4">
    <inkscape:path-effect
       effect="spiro"
       id="path-effect3958"
       is_visible="true" />
    <inkscape:path-effect
       effect="spiro"
       id="path-effect3954"
       is_visible="true" />
    <linearGradient
       id="linearGradient3805">
      <stop
         style="stop-color:#262500;stop-opacity:1;"
         offset="0"
         id="stop3807" />
      <stop
         style="stop-color:#699f00;stop-opacity:1;"
         offset="1"
         id="stop3809" />
    </linearGradient>
    <linearGradient
       id="linearGradient3797">
      <stop
         style="stop-color:#ffff00;stop-opacity:1;"
         offset="0"
         id="stop3799" />
      <stop
         style="stop-color:#bbff00;stop-opacity:1;"
         offset="1"
         id="stop3801" />
    </linearGradient>
    <clipPath
       clipPathUnits="userSpaceOnUse"
       id="clipPath3896">
      <g
         inkscape:label="Layer 1"
         id="g3898"
         transform="translate(0.46013035,0.4532874)">
        <path
           transform="translate(0,988.3622)"
           style="fill:#ffffff;fill-opacity:1;stroke:#000000;stroke-width:2;stroke-linecap:round;stroke-linejoin:round;stroke-miterlimit:4;stroke-opacity:1"
           inkscape:transform-center-y="-2.9971004"
           d="M 31.53987,1.1577492 40.623998,20.793325 61.389771,20.844973 47.002231,38.26814 53.988122,61.935636 31.539869,48.596033 9.091615,61.935635 16.077508,38.26814 1.6899683,20.844971 22.45574,20.793325 z"
           id="path3900"
           inkscape:connector-curvature="0"
           sodipodi:nodetypes="ccccccccccc" />
      </g>
    </clipPath>
  </defs>
  <sodipodi:namedview
     id="base"
     pagecolor="#ffffff"
     bordercolor="#666666"
     borderopacity="1.0"
     inkscape:pageopacity="0.0"
     inkscape:pageshadow="2"
     inkscape:zoom="7.15625"
     inkscape:cx="10.145287"
     inkscape:cy="35.947257"
     inkscape:document-units="px"
     inkscape:current-layer="layer1"
     showgrid="false"
     inkscape:window-width="1278"
     inkscape:window-height="1004"
     inkscape:window-x="-1"
     inkscape:window-y="17"
     inkscape:window-maximized="0" />
  <metadata
     id="metadata7">
    <rdf:RDF>
      <cc:Work
         rdf:about="">
        <dc:format>image/svg+xml</dc:format>
        <dc:type
           rdf:resource="http://purl.org/dc/dcmitype/StillImage" />
        <dc:title />
      </cc:Work>
    </rdf:RDF>
  </metadata>
  <g
     inkscape:label="Layer 1"
     inkscape:groupmode="layer"
     id="layer1"
     transform="translate(0,-988.36218)">
    <path
       style="fill:#ffe64d;fill-opacity:1;stroke:#00309a;stroke-width:2;stroke-linecap:butt;stroke-linejoin:miter;stroke-miterlimit:4;stroke-opacity:1;stroke-dasharray:none"
       d="m 64.339779,1007.2059 0,45.1563 -39.84375,0 c -6.012599,-2.9841 -9.23786,-8.4018 -10.25,-17.125 0,0 12.339663,5.079 25.358902,3.5904 11.327138,-1.2951 19.347411,-10.3374 19.347411,-10.3374 0,0 -8.687016,-12.1993 -20.050063,-13.128 -12.556865,-1.0264 -24.90625,3.2187 -24.90625,3.2187 1.040341,-15.984 16.03063,-20.65783 27.375,-20.46872 8.329425,0.3863 17.392948,4.61542 22.96875,9.09372 z"
       id="path3912"
       inkscape:connector-curvature="0"
       sodipodi:nodetypes="ccccsccccc" />
    <path
       inkscape:connector-curvature="0"
       style="fill:#0f7fff;fill-opacity:1;stroke:#00309a;stroke-width:2;stroke-linecap:butt;stroke-linejoin:miter;stroke-miterlimit:4;stroke-opacity:1;stroke-dasharray:none"
       d="m 64.339779,988.36218 0,18.84372 c -2.00965,-1.6565 -4.260904,-3.1676 -6.625,-4.4687 0.475364,-3.30571 0.695344,-4.83216 2.483488,-8.98883 0.774027,-1.79928 2.107872,-4.1351 3.235262,-5.38619 z"
       id="path3919"
       sodipodi:nodetypes="cccscc" />
    <path
       style="fill:none;stroke:#00309a;stroke-width:2;stroke-linecap:butt;stroke-linejoin:miter;stroke-miterlimit:4;stroke-opacity:1;stroke-dasharray:none"
       d="m 17.40884,1023.5794 -13.062059,-3.121"
       id="path3946"
       inkscape:connector-curvature="0" />
    <path
       style="fill:none;stroke:#00309a;stroke-width:2;stroke-linecap:butt;stroke-linejoin:miter;stroke-miterlimit:4;stroke-opacity:1;stroke-dasharray:none"
       d="M 16.021719,1027.7408 4.577968,1026.7004"
       id="path3948"
       inkscape:connector-curvature="0" />
    <path
       style="fill:none;stroke:#00309a;stroke-width:2;stroke-linecap:butt;stroke-linejoin:miter;stroke-miterlimit:4;stroke-opacity:1;stroke-dasharray:none"
       d="M 16.715279,1031.3242 4,1032.7113"
       id="path3950"
       inkscape:connector-curvature="0" />
    <path
       inkscape:connector-curvature="0"
       style="fill:#01309a;fill-opacity:1;stroke:#00309a;stroke-width:2;stroke-linecap:butt;stroke-linejoin:miter;stroke-miterlimit:4;stroke-opacity:1;stroke-dasharray:none"
       d="m 35.027279,1020.7997 c 1.199165,0 2.4322,0.3419 3.3125,1.1562 0.784643,0.7258 1.228268,1.7575 1.625,2.75 0.396732,0.9925 0.787022,2.0162 1.5,2.8125 0.672845,0.7515 1.621017,1.2464 2.625,1.3438 1.003983,0.097 2.026156,-0.2062 2.78125,-0.875 0.515739,-0.4568 0.912904,-1.0741 1.28125,-1.6563 0.368347,-0.5822 0.744118,-1.1623 1.28125,-1.5937 0.778141,-0.6251 1.787001,-0.8501 2.78125,-0.9375 0.808146,-0.071 1.631458,-0.077 2.4375,-0.1563 2.70077,2.622 4.3125,4.8438 4.3125,4.8438 0,0 -0.943847,1.0241 -2.5,2.375 -0.272551,-0.1529 -0.525238,-0.3204 -0.78125,-0.5 -0.411082,-0.2885 -0.813517,-0.5954 -1.25,-0.8438 -0.436485,-0.2483 -0.938146,-0.4465 -1.4375,-0.5 -0.653364,-0.07 -1.298545,0.091 -1.875,0.4063 -0.576454,0.3154 -1.089736,0.7633 -1.53125,1.25 -0.883027,0.9733 -1.571066,2.1434 -2.59375,2.9687 -0.962573,0.7769 -2.201331,1.2314 -3.4375,1.1875 -1.236168,-0.044 -2.439251,-0.597 -3.25,-1.5312 -0.607935,-0.7005 -0.97363,-1.6013 -1.375,-2.4375 -0.401369,-0.8362 -0.898632,-1.6524 -1.65625,-2.1875 -0.781304,-0.5518 -1.769481,-0.7113 -2.71875,-0.5938 -0.94927,0.1175 -1.843102,0.4882 -2.6875,0.9375 -0.65478,0.3485 -1.305518,0.7396 -2,1 -0.694482,0.2605 -1.48128,0.383 -2.1875,0.1563 -0.405231,-0.1301 -0.770621,-0.3778 -1.0625,-0.6875 -0.291879,-0.3098 -0.491093,-0.6898 -0.625,-1.0938 -0.267814,-0.8079 -0.19397,-1.6989 0.09375,-2.5 0.407227,-1.1338 1.214649,-2.1018 2.1875,-2.8125 0.972852,-0.7106 2.082196,-1.1941 3.21875,-1.5937 1.131285,-0.3978 2.332085,-0.6917 3.53125,-0.6875 z"
       id="path3956" />
  </g>
</svg>
