<?xml version="1.0" encoding="UTF-8" standalone="no"?>
<!-- Created with Inkscape (http://www.inkscape.org/) -->

<svg
   xmlns:dc="http://purl.org/dc/elements/1.1/"
   xmlns:cc="http://creativecommons.org/ns#"
   xmlns:rdf="http://www.w3.org/1999/02/22-rdf-syntax-ns#"
   xmlns:svg="http://www.w3.org/2000/svg"
   xmlns="http://www.w3.org/2000/svg"
   xmlns:xlink="http://www.w3.org/1999/xlink"
   xmlns:sodipodi="http://sodipodi.sourceforge.net/DTD/sodipodi-0.dtd"
   xmlns:inkscape="http://www.inkscape.org/namespaces/inkscape"
   width="64"
   height="64"
   id="svg2"
   version="1.1"
   inkscape:version="0.48.5 r10040"
   sodipodi:docname="BirdScratch.svg"
   inkscape:export-filename="/home/cg/programming/orders/res/BirdScratch.png"
   inkscape:export-xdpi="180"
   inkscape:export-ydpi="180">
  <defs
     id="defs4">
    <linearGradient
       id="linearGradient3984">
      <stop
         id="stop3986"
         offset="0"
         style="stop-color:#00ffff;stop-opacity:1;" />
      <stop
         style="stop-color:#00ffff;stop-opacity:1;"
         offset="0.46199939"
         id="stop3988" />
      <stop
         id="stop3990"
         offset="1"
         style="stop-color:#ffffff;stop-opacity:0;" />
    </linearGradient>
    <inkscape:path-effect
       effect="spiro"
       id="path-effect3900"
       is_visible="true" />
    <linearGradient
       id="linearGradient3884">
      <stop
         id="stop3886"
         offset="0"
         style="stop-color:#00ffff;stop-opacity:1;" />
      <stop
         style="stop-color:#00ffff;stop-opacity:1;"
         offset="0.56465197"
         id="stop3888" />
      <stop
         id="stop3890"
         offset="1"
         style="stop-color:#ffffff;stop-opacity:1;" />
    </linearGradient>
    <linearGradient
       id="linearGradient3866">
      <stop
         style="stop-color:#00ffff;stop-opacity:1;"
         offset="0"
         id="stop3868" />
      <stop
         id="stop3874"
         offset="0.66996515"
         style="stop-color:#00ffff;stop-opacity:1;" />
      <stop
         style="stop-color:#ffffff;stop-opacity:0;"
         offset="1"
         id="stop3870" />
    </linearGradient>
    <inkscape:path-effect
       is_visible="true"
       id="path-effect3851"
       effect="spiro" />
    <inkscape:path-effect
       effect="spiro"
       id="path-effect3847"
       is_visible="true" />
    <inkscape:path-effect
       effect="spiro"
       id="path-effect3843"
       is_visible="true" />
    <inkscape:path-effect
       effect="spiro"
       id="path-effect3839"
       is_visible="true" />
    <inkscape:path-effect
       effect="spiro"
       id="path-effect3835"
       is_visible="true" />
    <inkscape:path-effect
       effect="spiro"
       id="path-effect3831"
       is_visible="true" />
    <inkscape:path-effect
       effect="spiro"
       id="path-effect3827"
       is_visible="true" />
    <inkscape:path-effect
       effect="spiro"
       id="path-effect3823"
       is_visible="true" />
    <inkscape:path-effect
       effect="spiro"
       id="path-effect3819"
       is_visible="true" />
    <inkscape:path-effect
       effect="spiro"
       id="path-effect3815"
       is_visible="true" />
    <inkscape:path-effect
       effect="spiro"
       id="path-effect3811"
       is_visible="true" />
    <inkscape:path-effect
       effect="spiro"
       id="path-effect3807"
       is_visible="true" />
    <inkscape:path-effect
       effect="spiro"
       id="path-effect3803"
       is_visible="true" />
    <inkscape:path-effect
       effect="spiro"
       id="path-effect3799"
       is_visible="true" />
    <inkscape:path-effect
       effect="spiro"
       id="path-effect3795"
       is_visible="true" />
    <inkscape:path-effect
       effect="spiro"
       id="path-effect3791"
       is_visible="true" />
    <linearGradient
       inkscape:collect="always"
       xlink:href="#linearGradient3884"
       id="linearGradient3957"
       gradientUnits="userSpaceOnUse"
       gradientTransform="matrix(1.3422027,0,0,-1.3422027,-9.8754554,2389.9914)"
       x1="21.957447"
       y1="1009.0395"
       x2="33.702129"
       y2="1003.9332" />
    <linearGradient
       inkscape:collect="always"
       xlink:href="#linearGradient3884"
       id="linearGradient3960"
       gradientUnits="userSpaceOnUse"
       gradientTransform="matrix(1.3422027,0,0,1.3422027,-9.8754554,-349.267)"
       x1="21.957447"
       y1="1009.0395"
       x2="33.702129"
       y2="1003.9332" />
    <linearGradient
       inkscape:collect="always"
       xlink:href="#linearGradient3884"
       id="linearGradient3963"
       gradientUnits="userSpaceOnUse"
       gradientTransform="matrix(1.3422027,0,0,1.3422027,-11.360446,977.42488)"
       x1="33.580051"
       y1="31.743895"
       x2="17.090921"
       y2="31.563356" />
  </defs>
  <sodipodi:namedview
     id="base"
     pagecolor="#ffffff"
     bordercolor="#666666"
     borderopacity="1.0"
     inkscape:pageopacity="0.0"
     inkscape:pageshadow="2"
     inkscape:zoom="11.75"
     inkscape:cx="32"
     inkscape:cy="32"
     inkscape:document-units="px"
     inkscape:current-layer="layer1"
     showgrid="false"
     inkscape:window-width="1278"
     inkscape:window-height="1004"
     inkscape:window-x="0"
     inkscape:window-y="18"
     inkscape:window-maximized="0" />
  <metadata
     id="metadata7">
    <rdf:RDF>
      <cc:Work
         rdf:about="">
        <dc:format>image/svg+xml</dc:format>
        <dc:type
           rdf:resource="http://purl.org/dc/dcmitype/StillImage" />
        <dc:title></dc:title>
      </cc:Work>
    </rdf:RDF>
  </metadata>
  <g
     inkscape:label="Layer 1"
     inkscape:groupmode="layer"
     id="layer1"
     transform="translate(0,-988.36218)">
    <path
       style="fill:url(#linearGradient3963);fill-opacity:1;stroke:#000080;stroke-width:0.67110139000000002;stroke-linecap:round;stroke-linejoin:miter;stroke-miterlimit:4;stroke-opacity:1"
       d="m 33.474836,1019.89 c 0,3.8641 -8.914001,4.6312 -8.914001,4.6312 0,0 -4.578262,-0.7943 -6.44237,-2.3965 -1.864109,-1.602 -5.382406,-2.3963 -5.382406,-2.3963 0,0 3.524212,-0.8382 5.55578,-2.4033 2.031567,-1.5652 6.615745,-1.9187 6.615745,-1.9187 0,0 8.567252,0.6195 8.567252,4.4836 z"
       id="path3861"
       inkscape:connector-curvature="0"
       sodipodi:nodetypes="sczczcs" />
    <path
       sodipodi:nodetypes="czzzczczcssczzcsscc"
       inkscape:connector-curvature="0"
       inkscape:original-d="m 30.542192,1011.3774 c 0,0 -8.130366,-8.2239 -9.376894,-11.42467 -1.24653,-3.20076 -0.986322,-4.16299 -0.323342,-5.8202 0.662981,-1.65707 1.74212,-2.8809 3.556753,-3.34113 1.814635,-0.46025 6.143483,1.61668 6.143483,1.61668 0,0 0.556059,0.69699 0.646682,1.18556 0.09063,0.48869 -0.215561,1.61682 -0.215561,1.61682 0,0 2.122108,0.20804 2.478949,0.97 0.356843,0.76184 -0.754462,2.26336 -0.754462,2.26336 0,0 1.038392,0.19422 1.401146,0.53889 0.256505,0.24375 0.407355,0.61701 0.43112,0.97002 0.06032,0.89627 -0.754463,2.58667 -0.754463,2.58667 0,0 1.53695,0.07 2.155609,0.4311 0.618657,0.3618 0.289197,1.5487 0.646682,2.4791 0.357486,0.9303 -0.27047,0.7916 -1.508925,1.5089 0,0 2.01232,0.7047 2.694509,1.2934 0.725804,0.6263 0.818876,0.7814 0.646683,1.7245 -0.09307,0.5097 -0.862243,1.2932 -0.862243,1.2932 z"
       inkscape:path-effect="#path-effect3851"
       id="path3849"
       d="m 30.542192,1011.3774 c -4.343978,-2.5388 -7.73388,-6.669 -9.376894,-11.42467 -0.323847,-0.93737 -0.583082,-1.90301 -0.671639,-2.89078 -0.08856,-0.98777 -0.0017,-2.0015 0.348297,-2.92942 0.593833,-1.57434 1.955425,-2.82446 3.556753,-3.34113 1.064208,-0.34337 2.226899,-0.37523 3.308314,-0.0906 1.081414,0.28458 2.077821,0.88461 2.835169,1.70733 0.322387,0.32294 0.549699,0.73967 0.646682,1.18556 0.117905,0.54208 0.04025,1.12456 -0.215561,1.61682 0.449391,-0.21087 0.985611,-0.22851 1.447887,-0.0476 0.462277,0.18088 0.844127,0.55776 1.031062,1.01762 0.163016,0.40102 0.1778,0.86039 0.04091,1.27106 -0.136892,0.41067 -0.424343,0.7693 -0.795369,0.9923 0.517235,-0.0679 1.06271,0.1419 1.401146,0.53889 0.23219,0.27236 0.365426,0.6182 0.43112,0.97002 0.171043,0.91607 -0.117778,1.90627 -0.754463,2.58667 0.363634,-0.1217 0.759173,-0.1465 1.135176,-0.071 0.376002,0.075 0.731561,0.2502 1.020433,0.5024 0.341108,0.2978 0.586887,0.702 0.699446,1.1406 0.112559,0.4385 0.09218,0.9095 -0.05276,1.3385 -0.235925,0.6982 -0.81073,1.273 -1.508925,1.5089 1.02371,0.04 2.022781,0.5198 2.694509,1.2934 0.207057,0.2384 0.38485,0.5048 0.503298,0.7975 0.118448,0.2928 0.176156,0.6129 0.143385,0.927 -0.05592,0.536 -0.38896,1.0355 -0.862243,1.2932 l -7.005726,0.1078"
       style="fill:url(#linearGradient3960);fill-opacity:1;stroke:#000080;stroke-width:0.67110139000000002;stroke-linecap:butt;stroke-linejoin:miter;stroke-miterlimit:4;stroke-opacity:1;stroke-dasharray:none" />
    <path
       style="fill:url(#linearGradient3957);fill-opacity:1;stroke:#000080;stroke-width:0.67110139000000002;stroke-linecap:butt;stroke-linejoin:miter;stroke-miterlimit:4;stroke-opacity:1;stroke-dasharray:none"
       d="m 30.542192,1029.347 c -4.343974,2.5388 -7.733872,6.669 -9.376894,11.4247 -0.323848,0.9374 -0.583085,1.903 -0.671643,2.8908 -0.08856,0.9877 -0.0017,2.0015 0.348301,2.9294 0.593836,1.5743 1.95543,2.8244 3.556753,3.3411 1.06421,0.3434 2.226902,0.3752 3.308316,0.091 1.081415,-0.2845 2.07782,-0.8846 2.835167,-1.7073 0.322391,-0.323 0.549703,-0.7397 0.646682,-1.1856 0.117896,-0.5421 0.04024,-1.1245 -0.215561,-1.6168 0.449375,0.2109 0.985594,0.2286 1.447874,0.048 0.46228,-0.1809 0.844138,-0.5577 1.031075,-1.0176 0.163015,-0.401 0.177798,-0.8604 0.04091,-1.271 -0.136893,-0.4107 -0.424343,-0.7693 -0.795367,-0.9923 0.517252,0.068 1.062712,-0.142 1.401146,-0.539 0.232179,-0.2724 0.36542,-0.6182 0.43112,-0.97 0.171066,-0.916 -0.117758,-1.9063 -0.754463,-2.5867 0.363634,0.1217 0.759173,0.1465 1.135176,0.071 0.376002,-0.075 0.731561,-0.2502 1.020433,-0.5024 0.341108,-0.2978 0.586887,-0.702 0.699446,-1.1406 0.112559,-0.4385 0.09218,-0.9095 -0.05276,-1.3385 -0.235925,-0.6982 -0.81073,-1.273 -1.508925,-1.5089 1.023702,-0.04 2.02279,-0.5198 2.694509,-1.2933 0.207044,-0.2384 0.384825,-0.5048 0.50327,-0.7975 0.118444,-0.2927 0.176159,-0.6128 0.143413,-0.9269 -0.05589,-0.5361 -0.388926,-1.0356 -0.862243,-1.2934 l -7.005726,-0.1078"
       id="path3892"
       inkscape:path-effect="#path-effect3900"
       inkscape:original-d="m 30.542192,1029.347 c 0,0 -8.130366,8.224 -9.376894,11.4247 -1.24653,3.2008 -0.986322,4.163 -0.323342,5.8202 0.662981,1.6571 1.74212,2.881 3.556753,3.3411 1.814635,0.4603 6.143483,-1.6167 6.143483,-1.6167 0,0 0.556059,-0.697 0.646682,-1.1856 0.09063,-0.4885 -0.215561,-1.6168 -0.215561,-1.6168 0,0 2.122108,-0.208 2.478949,-0.9699 0.356843,-0.7619 -0.754462,-2.2633 -0.754462,-2.2633 0,0 1.038392,-0.1943 1.401146,-0.539 0.256505,-0.2437 0.407355,-0.617 0.43112,-0.97 0.06032,-0.8961 -0.754463,-2.5867 -0.754463,-2.5867 0,0 1.53695,-0.07 2.155609,-0.4311 0.618657,-0.3617 0.289197,-1.5487 0.646682,-2.4791 0.357486,-0.9302 -0.27047,-0.7916 -1.508925,-1.5089 0,0 2.01232,-0.7046 2.694509,-1.2933 0.725804,-0.6262 0.818876,-0.7814 0.646683,-1.7244 -0.09307,-0.5098 -0.862243,-1.2934 -0.862243,-1.2934 z"
       inkscape:connector-curvature="0"
       sodipodi:nodetypes="czzzczczcssczzcsscc" />
    <path
       style="fill:#ff6600;fill-opacity:1;stroke:#000080;stroke-width:0.67110139000000002;stroke-linecap:round;stroke-linejoin:miter;stroke-miterlimit:4;stroke-opacity:1;stroke-dasharray:none"
       d="m 51.263941,1020.3755 c 0,0 -3.373488,3.2334 -5.902835,3.2334 -2.529345,0 -4.579784,-1.4477 -4.579784,-3.2334 0,-1.7858 2.050439,-3.2335 4.579784,-3.2335 2.529347,0 5.902835,3.2335 5.902835,3.2335 z"
       id="path2989"
       inkscape:connector-curvature="0"
       sodipodi:nodetypes="csssc" />
    <path
       sodipodi:type="arc"
       style="fill:#00ffff;fill-opacity:1;stroke:#000080;stroke-width:0.60843378000000004;stroke-linecap:round;stroke-linejoin:miter;stroke-miterlimit:4;stroke-opacity:1;stroke-dasharray:none"
       id="path2987"
       sodipodi:cx="30.554579"
       sodipodi:cy="29.91217"
       sodipodi:rx="11.041406"
       sodipodi:ry="8.6323709"
       d="m 41.595984,29.91217 a 11.041406,8.6323709 0 1 1 -22.082811,0 11.041406,8.6323709 0 1 1 22.082811,0 z"
       transform="matrix(1.1034212,0,0,1.1025754,0.05689774,987.39497)" />
    <path
       inkscape:connector-curvature="0"
       style="fill:#ffffff;fill-opacity:1;stroke:#000080;stroke-width:0.67110139000000002;stroke-linecap:round;stroke-linejoin:miter;stroke-miterlimit:4;stroke-opacity:1;stroke-dasharray:none"
       d="m 43.281569,1015.6264 c -0.28577,0.039 -0.520637,0.2124 -0.697505,0.4755 0.167666,0.3423 0.266295,0.7163 0.323832,1.1412 0.07166,0.5293 0.0287,1.0519 -0.09399,1.4942 0.265456,0.2888 0.606848,0.4682 0.946024,0.4222 0.678354,-0.093 1.136726,-0.9828 1.004941,-1.9562 -0.131764,-0.9732 -0.804943,-1.6687 -1.483297,-1.5769 z"
       id="path2994" />
    <path
       id="path3001"
       d="m 43.700055,1021.5905 c -0.286902,-0.03 -0.555823,0.085 -0.789262,0.2994 0.08307,0.372 0.0916,0.7588 0.0483,1.1854 -0.05394,0.5314 -0.21776,1.0294 -0.440371,1.4308 0.190645,0.3429 0.480715,0.5968 0.821236,0.6315 0.681043,0.069 1.334846,-0.6901 1.434052,-1.6673 0.09918,-0.9772 -0.39291,-1.8106 -1.073952,-1.8798 z"
       style="fill:#ffffff;fill-opacity:1;stroke:#000080;stroke-width:0.67110139000000002;stroke-linecap:round;stroke-linejoin:miter;stroke-miterlimit:4;stroke-opacity:1;stroke-dasharray:none"
       inkscape:connector-curvature="0" />
    <path
       style="fill:none;stroke:#000080;stroke-width:0.67110139000000002;stroke-linecap:butt;stroke-linejoin:miter;stroke-miterlimit:4;stroke-opacity:1;stroke-dasharray:none"
       d="m 28.70992,1014.9325 c 0.183752,-0.1322 0.429971,-0.1733 0.646682,-0.1078 0.13459,0.041 0.255115,0.119 0.362873,0.2093 0.107758,0.09 0.204281,0.1931 0.305164,0.291 0.100883,0.098 0.207359,0.192 0.329895,0.2609 0.122537,0.069 0.263027,0.1119 0.403214,0.1011 0.03616,-0 0.07199,-0.01 0.108175,-0.011 0.03618,-0 0.07331,-9e-4 0.107385,0.011 0.0416,0.015 0.07698,0.047 0.09678,0.086 0.0198,0.04 0.02382,0.087 0.01099,0.1292"
       id="path3789"
       inkscape:path-effect="#path-effect3791"
       inkscape:original-d="m 28.70992,1014.9325 c 0.0431,0.1952 0.507184,-0.2473 0.646682,-0.1078 0.438703,0.4386 1.047697,0.5087 1.401146,0.8623 0.0508,0.05 0.164752,-0.051 0.21556,0 0.115175,0.1154 -0.153217,0.2155 0.107776,0.2155"
       inkscape:connector-curvature="0" />
    <path
       style="fill:none;stroke:#000080;stroke-width:0.67110139000000002;stroke-linecap:butt;stroke-linejoin:miter;stroke-miterlimit:4;stroke-opacity:1;stroke-dasharray:none"
       d="m 29.572163,1018.5971 c 0.01327,0.055 0.01,0.1145 -0.0093,0.168 -0.01929,0.053 -0.05452,0.1012 -0.100036,0.1353 -0.04551,0.034 -0.10113,0.055 -0.157907,0.058 -0.05678,0 -0.114502,-0.01 -0.163887,-0.038 -0.08404,-0.048 -0.141275,-0.14 -0.147277,-0.2366 -0.006,-0.097 0.03941,-0.195 0.116863,-0.2531 0.07745,-0.058 0.184568,-0.074 0.275638,-0.041 0.09107,0.033 0.163315,0.1136 0.185898,0.2077 0.013,0.054 0.01022,0.1117 -0.0052,0.1652 -0.0154,0.053 -0.04319,0.1032 -0.07858,0.1462 -0.07077,0.086 -0.170004,0.1444 -0.27311,0.1867 -0.103107,0.042 -0.211503,0.07 -0.317099,0.1053 -0.105596,0.035 -0.210162,0.08 -0.296058,0.151 -0.120044,0.099 -0.194323,0.2416 -0.266575,0.3796 -0.07225,0.1379 -0.149158,0.2795 -0.272328,0.3748 -0.120583,0.093 -0.280825,0.1334 -0.431121,0.1079"
       id="path3793"
       inkscape:path-effect="#path-effect3795"
       inkscape:original-d="m 29.572163,1018.5971 c -0.143708,0.1078 -0.323341,0.467 -0.431122,0.3233 -0.107775,-0.1437 0.558143,-0.4503 0.431122,-0.3233 -0.443963,0.4439 -0.664494,0.4489 -0.970023,0.7544 -0.252602,0.2526 -0.286302,0.5019 -0.538903,0.7544 -0.08839,0.088 -0.295725,-0.029 -0.431121,0.1079"
       inkscape:connector-curvature="0" />
    <path
       style="fill:none;stroke:#000080;stroke-width:0.67110139000000002;stroke-linecap:butt;stroke-linejoin:miter;stroke-miterlimit:4;stroke-opacity:1;stroke-dasharray:none"
       d="m 30.326625,1022.585 -0.107776,-0.6469 c -0.03478,-0.011 -0.07299,-0.011 -0.107775,0 -0.03182,0.01 -0.06056,0.029 -0.08277,0.054 -0.02221,0.025 -0.0379,0.055 -0.04614,0.088 -0.01648,0.065 -0.0025,0.1352 0.03166,0.1926 0.03416,0.057 0.08725,0.1021 0.146646,0.1326 0.05939,0.03 0.124997,0.048 0.191094,0.057 0.132195,0.019 0.267422,0.01 0.399276,0.03 0.06593,0.011 0.131166,0.029 0.189489,0.062 0.05832,0.032 0.109579,0.08 0.140768,0.1386 0.02554,0.048 0.03698,0.1033 0.03927,0.1579 0.0023,0.055 -0.0042,0.1093 -0.01298,0.1633 -0.01746,0.1079 -0.04378,0.2174 -0.02629,0.3254 0.0183,0.113 0.08368,0.2138 0.163424,0.296 0.07975,0.082 0.174088,0.1483 0.264935,0.218 0.09085,0.07 0.179916,0.1446 0.244418,0.2392 0.03225,0.047 0.05805,0.099 0.07307,0.1545 0.01502,0.055 0.01907,0.1138 0.0086,0.1701 -0.0091,0.049 -0.02867,0.095 -0.04627,0.1413 -0.0176,0.046 -0.03348,0.094 -0.03451,0.144 -5.11e-4,0.025 0.0028,0.05 0.01119,0.073 0.0084,0.023 0.02206,0.045 0.04057,0.062 0.01852,0.016 0.042,0.028 0.06668,0.03 0.02468,0 0.05044,-0 0.07011,-0.019 0.0206,-0.016 0.03328,-0.04 0.04804,-0.061 0.0074,-0.011 0.01547,-0.021 0.02532,-0.03 0.0099,-0.01 0.02161,-0.015 0.03441,-0.017 0.01582,-0 0.03253,0 0.04614,0.01 0.01361,0.01 0.02421,0.021 0.0312,0.036 0.01398,0.029 0.0136,0.063 0.0093,0.095 -0.0043,0.032 -0.01215,0.063 -0.01216,0.096 -8e-6,0.016 0.002,0.032 0.0073,0.047 0.0053,0.015 0.01393,0.029 0.02599,0.04 0.01062,0.01 0.02367,0.016 0.03736,0.019 0.01369,0 0.02803,0 0.04215,0 0.02824,-0 0.0553,-0.012 0.08192,-0.022 0.02662,-0.01 0.05357,-0.02 0.08177,-0.022 0.0141,-0 0.02844,-8e-4 0.04222,0 0.01378,0 0.02699,0.01 0.03791,0.018 0.01091,0.01 0.01935,0.021 0.02506,0.034 0.0057,0.013 0.0087,0.027 0.0096,0.041 0.0018,0.028 -0.0048,0.056 -0.01308,0.083 -0.0083,0.027 -0.01848,0.053 -0.02423,0.081 -0.0058,0.028 -0.0069,0.057 0.0026,0.084 0.0078,0.022 0.02272,0.041 0.04181,0.054 0.01909,0.013 0.04227,0.02 0.0654,0.02 0.02313,-2e-4 0.04612,-0.01 0.06521,-0.021 0.01909,-0.013 0.03421,-0.032 0.04314,-0.053 0.01401,-0.034 0.01255,-0.071 0.0081,-0.1072 -0.0044,-0.036 -0.01156,-0.072 -0.0081,-0.1083 0.0034,-0.036 0.01734,-0.07 0.03965,-0.098 0.02231,-0.028 0.0529,-0.049 0.08692,-0.061 0.03401,-0.011 0.07132,-0.013 0.106014,-0 0.03469,0.01 0.06663,0.028 0.09076,0.055"
       id="path3797"
       inkscape:path-effect="#path-effect3799"
       inkscape:original-d="m 30.326625,1022.585 c -0.03593,-0.2156 -0.07184,-0.4312 -0.107776,-0.6469 -0.03593,0 -0.113682,-0.034 -0.107775,0 0.181489,1.0892 0.118529,0.3898 0.970023,0.7547 0.101043,0.042 -0.08631,0.5604 0,0.6466 0.351429,0.3515 0.507594,0.8309 0.754462,1.0778 0.104748,0.1044 -0.04035,0.4311 0.107776,0.4311 0.0508,0 0.05698,-0.1078 0.107776,-0.1078 0.08294,0 0.0592,0.2748 0.107776,0.3233 0.05389,0.054 0.269452,-0.054 0.323342,0 0.07621,0.077 -0.04819,0.227 0,0.3233 0.03214,0.064 0.183427,0.064 0.21556,0 0.03214,-0.064 -0.03214,-0.1512 0,-0.2155 0.0508,-0.102 0.243008,-0.026 0.323342,-0.1078"
       inkscape:connector-curvature="0" />
    <path
       style="fill:none;stroke:#000080;stroke-width:0.67110139000000002;stroke-linecap:butt;stroke-linejoin:miter;stroke-miterlimit:4;stroke-opacity:1;stroke-dasharray:none"
       d="m 33.775598,1018.7049 c 0.05717,0.056 0.09059,0.1355 0.09059,0.2155 0,0.08 -0.03342,0.1596 -0.09059,0.2156 -0.04214,0.041 -0.09663,0.07 -0.154571,0.081 -0.05794,0.011 -0.119099,0 -0.173477,-0.018 -0.05438,-0.023 -0.101764,-0.062 -0.134408,-0.1112 -0.03264,-0.049 -0.05042,-0.108 -0.05042,-0.167 0,-0.059 0.01778,-0.1178 0.05042,-0.1669 0.03264,-0.049 0.08003,-0.088 0.134408,-0.1112 0.05438,-0.023 0.115537,-0.029 0.173477,-0.018 0.05794,0.011 0.112433,0.039 0.154571,0.081 0.04374,0.043 0.07344,0.098 0.09696,0.1545 0.02352,0.056 0.04152,0.1153 0.06578,0.1715 0.02426,0.056 0.0555,0.1107 0.100891,0.1518 0.0227,0.021 0.0488,0.038 0.07738,0.048 0.02858,0.011 0.05967,0.016 0.09011,0.013 0.05392,-0.01 0.10231,-0.036 0.142544,-0.073 0.04023,-0.036 0.07427,-0.079 0.113578,-0.1164 0.0393,-0.037 0.08572,-0.07 0.139055,-0.08 0.02667,-0 0.05466,-0 0.08029,0 0.02563,0.01 0.04874,0.026 0.06343,0.048 0.01495,0.023 0.02066,0.051 0.02049,0.079 -1.64e-4,0.028 -0.0059,0.055 -0.01224,0.082 -0.0064,0.027 -0.01344,0.054 -0.01643,0.081 -0.003,0.028 -0.0017,0.056 0.0082,0.082 0.0093,0.024 0.02592,0.045 0.04618,0.061 0.02027,0.016 0.04407,0.027 0.06886,0.035 0.04957,0.015 0.102211,0.014 0.153892,0.013 0.05168,-0 0.104294,-0 0.153957,0.012 0.02483,0.01 0.04872,0.018 0.06914,0.034 0.02042,0.016 0.03729,0.037 0.04688,0.061 0.01345,0.034 0.012,0.071 0.0077,0.1073 -0.0043,0.036 -0.0111,0.072 -0.0077,0.1083 0.0051,0.055 0.03464,0.1067 0.07684,0.1424 0.0422,0.036 0.0963,0.056 0.151344,0.062 0.05504,0.01 0.110975,-0 0.163328,-0.021 0.05235,-0.018 0.101315,-0.045 0.147387,-0.075 0.250121,-0.1663 0.414845,-0.4545 0.431122,-0.7544"
       id="path3801"
       inkscape:path-effect="#path-effect3803"
       inkscape:original-d="m 33.775598,1018.7049 c 0,0.1437 0.143708,0.4311 0,0.4311 -0.143707,0 -0.143707,-0.4311 0,-0.4311 1.759356,0 0.200812,0.3085 0.431122,0.5388 0.152319,0.1523 0.368688,-0.4708 0.538902,-0.2155 0.05978,0.089 -0.02615,0.2187 0,0.3233 0.07504,0.3003 0.42803,0.1044 0.538902,0.2155 0.0508,0.05 -0.0508,0.1649 0,0.2156 0.02658,0.026 0.456483,0.1902 0.538901,0.1078 0.08368,-0.082 0.279468,-0.7544 0.431122,-0.7544"
       inkscape:connector-curvature="0" />
    <path
       style="fill:none;stroke:#000080;stroke-width:0.67110139000000002;stroke-linecap:butt;stroke-linejoin:miter;stroke-miterlimit:4;stroke-opacity:1;stroke-dasharray:none"
       d="m 23.859802,1020.9682 c 0.115406,-0.1247 0.270915,-0.2116 0.437561,-0.2447 0.166645,-0.033 0.343577,-0.012 0.497836,0.059 0.154258,0.071 0.285058,0.1922 0.368034,0.3405 0.08297,0.1482 0.117703,0.323 0.09771,0.4917 -0.0043,0.036 -0.01098,0.072 -0.01326,0.1082 -0.0023,0.036 5.2e-5,0.074 0.01326,0.1074 0.01083,0.028 0.02876,0.052 0.05072,0.073 0.02196,0.02 0.04787,0.036 0.07536,0.047 0.05499,0.023 0.115418,0.029 0.17498,0.032 0.05956,0 0.119375,-3e-4 0.178602,0.01 0.05923,0.01 0.118855,0.023 0.16702,0.058 0.05276,0.038 0.08767,0.096 0.117475,0.1544 0.02981,0.058 0.05644,0.1187 0.09809,0.169 0.06539,0.079 0.166931,0.1267 0.269451,0.1267 0.10252,0 0.204056,-0.048 0.269451,-0.1267"
       id="path3813"
       inkscape:path-effect="#path-effect3815"
       inkscape:original-d="m 23.859802,1020.9682 c 0.02856,0.2312 1.290043,0.5356 1.401145,0.6466 0.0508,0.052 -0.0508,0.1648 0,0.2156 0.143707,0.1438 0.502976,0.072 0.646683,0.2156 0.08981,0.089 0.125751,0.2335 0.21556,0.3234 0.04123,0.041 0.5011,0 0.538902,0"
       inkscape:connector-curvature="0" />
    <path
       style="fill:none;stroke:#000080;stroke-width:0.67110139000000002;stroke-linecap:butt;stroke-linejoin:miter;stroke-miterlimit:4;stroke-opacity:1;stroke-dasharray:none"
       d="m 27.955456,1024.7405 c -0.67363,0.4095 -1.477502,0.6009 -2.263387,0.539 -0.218139,-0.017 -0.434781,-0.053 -0.646682,-0.1079"
       id="path3817"
       inkscape:path-effect="#path-effect3819"
       inkscape:original-d="m 27.955456,1024.7405 c -0.898125,0.189 -1.753765,0.03 -2.263387,0.539 -0.106216,0.1055 -0.646682,0 -0.646682,-0.1079"
       inkscape:connector-curvature="0" />
    <path
       style="fill:none;stroke:#000080;stroke-width:0.67110139000000002;stroke-linecap:butt;stroke-linejoin:miter;stroke-miterlimit:4;stroke-opacity:1;stroke-dasharray:none"
       d="m 24.398704,1018.0581 c 0,0.056 0.02323,0.1125 0.06314,0.1524 0.03991,0.04 0.09599,0.063 0.152425,0.063 0.05643,0 0.11252,-0.023 0.152425,-0.063 0.0399,-0.04 0.06314,-0.096 0.06314,-0.1524 0,-0.056 -0.02323,-0.1125 -0.06314,-0.1524 -0.03991,-0.04 -0.09599,-0.063 -0.152425,-0.063 -0.05643,0 -0.11252,0.023 -0.152425,0.063 -0.0399,0.04 -0.06314,0.096 -0.06314,0.1524 0.0603,0.042 0.132135,0.068 0.205559,0.073 0.07342,0.01 0.148239,-0.01 0.214092,-0.042 0.06585,-0.033 0.122564,-0.084 0.162287,-0.1459 0.03972,-0.062 0.06235,-0.1348 0.06475,-0.2084 0.0026,-0.08 -0.01836,-0.1604 -0.01402,-0.2407 0.0022,-0.04 0.01096,-0.081 0.03098,-0.1155 0.02003,-0.035 0.05213,-0.064 0.09081,-0.075 0.03481,-0.01 0.07192,-0.01 0.107774,-1e-4 0.03586,0 0.07295,0.01 0.107785,1e-4 0.02439,-0.01 0.04656,-0.021 0.06411,-0.039 0.01755,-0.018 0.03054,-0.041 0.03881,-0.065 0.01653,-0.048 0.01405,-0.1007 0.002,-0.15 -0.02402,-0.099 -0.0843,-0.1856 -0.104957,-0.2849 -0.01517,-0.073 -0.0071,-0.1522 0.03141,-0.2159 0.01927,-0.032 0.04592,-0.059 0.07784,-0.078 0.03191,-0.019 0.0691,-0.03 0.106319,-0.029 0.01809,4e-4 0.03603,0 0.05407,0 0.01804,0 0.03658,0 0.0537,-0 0.01355,-0 0.02589,-0.013 0.03549,-0.023 0.0096,-0.011 0.01644,-0.024 0.01967,-0.038 0.0032,-0.014 0.0029,-0.029 -0.0011,-0.043 -0.0039,-0.014 -0.01144,-0.027 -0.02157,-0.037 -0.01013,-0.01 -0.02287,-0.018 -0.03664,-0.022 -0.01377,-0 -0.02855,-0 -0.04251,-10e-4 -0.01396,0 -0.02706,0.01 -0.0377,0.02 -0.01064,0.01 -0.01878,0.022 -0.02343,0.036"
       id="path3821"
       inkscape:path-effect="#path-effect3823"
       inkscape:original-d="m 24.398704,1018.0581 c 0.143707,0 0.431122,-0.1437 0.431122,0 0,0.1438 -0.476567,0.1364 -0.431122,0 -0.286578,-1.3354 0.476267,-0.1529 0.646683,-0.3233 0.08981,-0.089 0.01796,-0.3413 0.107776,-0.4311 0.0508,-0.052 0.164752,0.05 0.215559,0 0.08981,-0.089 -0.08982,-0.4492 0,-0.5388 0.08981,-0.09 0.125738,-0.2337 0.215562,-0.3235 0.0254,-0.025 0.143707,0 0.107776,0 -0.203586,0 -0.335317,-0.1078 -0.107776,-0.1078"
       inkscape:connector-curvature="0" />
    <path
       style="fill:none;stroke:#000080;stroke-width:0.67110139000000002;stroke-linecap:butt;stroke-linejoin:miter;stroke-miterlimit:4;stroke-opacity:1;stroke-dasharray:none"
       d="m 36.685669,1012.3458 c -0.05644,-0.042 -0.129964,-0.061 -0.199805,-0.051 -0.06984,0.01 -0.135141,0.049 -0.177466,0.1051 -0.04232,0.056 -0.06115,0.13 -0.05117,0.1998 0.01,0.07 0.04866,0.1352 0.1051,0.1775 0.05644,0.042 0.129964,0.061 0.199805,0.051 0.06984,-0.01 0.135141,-0.049 0.177466,-0.1051 0.04232,-0.057 0.06115,-0.13 0.05117,-0.1998 -0.01,-0.07 -0.04866,-0.1352 -0.1051,-0.1775 l -0.538903,0.4312 c 0.0035,0.036 0.0035,0.072 0,0.1078 -0.0083,0.085 -0.03757,0.1698 -0.09465,0.2333 -0.02854,0.032 -0.06376,0.058 -0.103238,0.074 -0.03948,0.016 -0.08324,0.022 -0.125454,0.016 -0.03738,-0.01 -0.07281,-0.021 -0.110109,-0.027 -0.01865,-0 -0.03787,-0 -0.05636,10e-5 -0.01849,0 -0.03627,0.013 -0.04909,0.027 -0.0097,0.01 -0.0163,0.024 -0.01992,0.037 -0.0036,0.014 -0.0043,0.028 -0.003,0.042 0.0026,0.028 0.01312,0.055 0.02344,0.082 0.01032,0.026 0.0207,0.054 0.02315,0.082 0.0012,0.014 4.17e-4,0.029 -0.0033,0.042 -0.0038,0.014 -0.01054,0.027 -0.02036,0.037 -0.01298,0.014 -0.03083,0.022 -0.04931,0.026 -0.01848,0 -0.03762,0 -0.0562,-4e-4 -0.03716,-0.01 -0.07263,-0.021 -0.110051,-0.025 -0.05021,-0.01 -0.102021,0.01 -0.144166,0.036 -0.04214,0.028 -0.07466,0.069 -0.09409,0.1161 -0.01943,0.047 -0.02603,0.098 -0.02162,0.1486 0.0044,0.05 0.01964,0.099 0.04208,0.1447 0.04488,0.091 0.117395,0.1647 0.195137,0.2293 0.07774,0.065 0.161798,0.1214 0.238225,0.1876 0.09419,0.082 0.176744,0.1777 0.235154,0.2878 0.05841,0.11 0.09207,0.2344 0.08819,0.3589 -0.0057,0.1835 -0.09089,0.3561 -0.107776,0.5389 -0.01147,0.1242 0.0098,0.2519 0.06564,0.3634 0.05587,0.1114 0.146858,0.2059 0.258611,0.2611 0.111753,0.055 0.243947,0.07 0.363864,0.036 0.119918,-0.034 0.225817,-0.118 0.281913,-0.2294 0.03525,-0.07 0.05081,-0.1494 0.04707,-0.2277 -0.0037,-0.078 -0.0265,-0.1552 -0.06371,-0.2242 -0.07441,-0.1379 -0.204963,-0.2407 -0.350306,-0.2993 -0.145343,-0.059 -0.304863,-0.076 -0.461445,-0.069 -0.156581,0.01 -0.311278,0.035 -0.464981,0.066 -0.145405,0.029 -0.290991,0.059 -0.431122,0.1078 -0.345106,0.1192 -0.651163,0.3487 -0.862242,0.6466"
       id="path3825"
       inkscape:path-effect="#path-effect3827"
       inkscape:original-d="m 36.685669,1012.3458 c -0.107775,0.1437 -0.179633,0.5389 -0.323342,0.4312 -0.143707,-0.1078 0.502976,-0.4312 0.323342,-0.4312 -0.179633,0.1437 -0.359269,0.2874 -0.538903,0.4312 0,0.037 0.0254,0.082 0,0.1078 -0.107775,0.1078 -0.21556,0.2155 -0.323341,0.3234 -0.05082,0.05 -0.164752,-0.05 -0.215559,0 -0.05389,0.054 0.05389,0.2694 0,0.3233 -0.05082,0.05 -0.164754,-0.052 -0.215562,0 -0.08183,0.081 0.215562,0.7254 0.215562,0.8622 0,0.3816 0.32334,0.265 0.32334,0.6467 0,0.057 -0.03269,0.6891 -0.107776,0.5389 -0.146583,-0.2932 0.970023,0.6646 0.970023,0.4311 0,-0.8135 -1.155736,-0.8922 -1.293365,-0.7544 -0.05599,0.056 -0.401033,0.047 -0.431122,0.1078 -0.03214,0.064 -0.862242,0.5747 -0.862242,0.6466"
       inkscape:connector-curvature="0"
       sodipodi:nodetypes="csccsccscsscsscc" />
    <path
       style="fill:none;stroke:#000080;stroke-width:0.67110139000000002;stroke-linecap:butt;stroke-linejoin:miter;stroke-miterlimit:4;stroke-opacity:1;stroke-dasharray:none"
       d="m 38.625716,1018.3814 c 0.243519,0.1781 0.416902,0.4496 0.476073,0.7455 0.05917,0.2958 0.0035,0.6131 -0.152731,0.8712 -0.05611,0.093 -0.126129,0.1816 -0.145409,0.2882 -0.0096,0.053 -0.0053,0.1103 0.01956,0.1584 0.01245,0.024 0.02995,0.046 0.05157,0.062 0.02162,0.016 0.0474,0.027 0.07428,0.03 0.03572,0 0.07212,-0 0.107776,0 0.03385,0 0.06556,0.022 0.08862,0.047 0.02307,0.025 0.03755,0.058 0.04225,0.092 0.0047,0.034 -2.19e-4,0.069 -0.01269,0.1006 -0.01247,0.032 -0.03236,0.06 -0.05671,0.084 -0.04871,0.048 -0.114081,0.076 -0.18088,0.09 -0.0668,0.014 -0.135617,0.016 -0.203936,0.017 -0.107775,0 -0.215566,0 -0.323341,0 0.05254,0.099 0.05254,0.2242 0,0.3233 -0.0314,0.059 -0.07999,0.1086 -0.136546,0.1446 -0.05655,0.036 -0.120876,0.059 -0.186795,0.071 -0.08577,0.016 -0.174922,0.014 -0.258304,0.039 -0.04169,0.013 -0.0818,0.033 -0.113633,0.062 -0.03183,0.03 -0.0549,0.07 -0.05918,0.1135 -0.0027,0.027 0.0019,0.054 0.006,0.081 0.0041,0.027 0.0076,0.055 0.0028,0.082 -0.0024,0.013 -0.0069,0.027 -0.01404,0.038 -0.0072,0.012 -0.01707,0.022 -0.02906,0.028 -0.01199,0.01 -0.0261,0.01 -0.03957,0.01 -0.01347,-0 -0.02615,-0.01 -0.03386,-0.021 -0.0052,-0.01 -0.0081,-0.017 -0.0091,-0.026 -0.0011,-0.01 -4.64e-4,-0.018 8.58e-4,-0.027 0.0026,-0.018 0.0081,-0.036 0.0083,-0.055 1.98e-4,-0.018 -0.0045,-0.035 -0.01309,-0.051 -0.0086,-0.015 -0.0209,-0.029 -0.03539,-0.039 -0.02898,-0.02 -0.06599,-0.027 -0.10101,-0.023 -0.03502,0 -0.06814,0.019 -0.09701,0.04 -0.02887,0.02 -0.05378,0.046 -0.07685,0.072 -0.111904,0.1296 -0.183346,0.2936 -0.202004,0.4638 -0.01866,0.1703 0.01555,0.3459 0.09672,0.4966 0.08117,0.1508 0.208955,0.276 0.361316,0.3542 0.15236,0.078 0.328638,0.1088 0.498434,0.087"
       id="path3829"
       inkscape:path-effect="#path-effect3831"
       inkscape:original-d="m 38.625716,1018.3814 c -0.01852,0.6877 -0.0081,1.2853 0.323342,1.6167 0.08982,0.089 -0.08983,0.4492 0,0.539 0.0254,0.025 0.133187,-0.025 0.107776,0 -0.179682,0.1797 -0.202686,0.3104 -0.323341,0.4311 -0.07621,0.077 -0.226941,-0.048 -0.323341,0 -0.0178,0.014 0,0.2948 0,0.3233 0,0.1352 -0.239282,0.1597 -0.323341,0.2156 -0.981296,0.6541 0.391583,-0.06 -0.431122,0.2155 -0.07621,0.025 -0.02745,0.2155 -0.107776,0.2155 -0.03593,0 0.02541,-0.081 0,-0.1078 -0.07621,-0.077 -0.431122,0 -0.323342,0 0.388006,0 0.754463,0.9278 0.754463,1.4013"
       inkscape:connector-curvature="0"
       sodipodi:nodetypes="cscsscsscsssc" />
    <path
       style="fill:none;stroke:#000080;stroke-width:0.67110139000000002;stroke-linecap:butt;stroke-linejoin:miter;stroke-miterlimit:4;stroke-opacity:1;stroke-dasharray:none"
       d="m 38.949058,1026.2495 c -0.07026,0.1663 -0.192824,0.3101 -0.345928,0.4057 -0.153104,0.096 -0.336041,0.1429 -0.516315,0.1331 -0.183162,-0.01 -0.358209,-0.076 -0.538903,-0.1078 -0.06081,-0.011 -0.123815,-0.017 -0.183847,-0 -0.03002,0.01 -0.05896,0.02 -0.08357,0.038 -0.02461,0.019 -0.04475,0.043 -0.05593,0.072 -0.01331,0.034 -0.01331,0.073 0,0.1078 -0.02854,0.075 -0.06471,0.1476 -0.107776,0.2156 -0.202443,0.3196 -0.564571,0.5321 -0.942283,0.5531 -0.377712,0.021 -0.761162,-0.1501 -0.997763,-0.4453"
       id="path3833"
       inkscape:path-effect="#path-effect3835"
       inkscape:original-d="m 38.949058,1026.2495 c -0.604539,-0.1595 -0.509162,0.4212 -0.862243,0.5388 -0.14428,0.048 -0.381939,-0.2646 -0.538903,-0.1078 -0.07185,0.071 -0.251486,0.037 -0.323342,0.1078 -0.0254,0.025 0,0.071 0,0.1078 -0.03593,0.071 -0.05098,0.1588 -0.107776,0.2156 -0.0338,0.033 -1.696649,0.1078 -1.940046,0.1078"
       inkscape:connector-curvature="0" />
    <path
       style="fill:none;stroke:#000080;stroke-width:0.67110139000000002;stroke-linecap:butt;stroke-linejoin:miter;stroke-miterlimit:4;stroke-opacity:1;stroke-dasharray:none"
       d="m 30.434406,1027.1117 c 0.129809,-0 0.260604,0.037 0.364314,0.1156 0.103711,0.078 0.179624,0.1925 0.211448,0.3184 0.03182,0.1259 0.01934,0.2626 -0.03477,0.3806 -0.05411,0.1181 -0.14948,0.2168 -0.265638,0.2748 -0.116158,0.058 -0.252308,0.075 -0.37923,0.048 -0.126922,-0.028 -0.243745,-0.1 -0.325396,-0.2005 -0.08165,-0.101 -0.127571,-0.2303 -0.127904,-0.3602 -3.33e-4,-0.1298 0.04492,-0.2594 0.126056,-0.3608 0.103571,-0.1295 0.265411,-0.2104 0.431121,-0.2156 0.1197,-0 0.240313,0.031 0.339613,0.098 0.0993,0.067 0.176796,0.1657 0.218205,0.2781 0.04141,0.1123 0.04653,0.2378 0.01441,0.3531 -0.03212,0.1154 -0.101311,0.2201 -0.194828,0.295 -0.09352,0.075 -0.210895,0.1193 -0.330504,0.1253 -0.119608,0.01 -0.240852,-0.027 -0.34139,-0.092 -0.100539,-0.065 -0.179871,-0.1624 -0.223379,-0.274 -0.04351,-0.1115 -0.05098,-0.2368 -0.02103,-0.3528 -0.03742,-0.1192 -0.125505,-0.2215 -0.237778,-0.2763 -0.112273,-0.055 -0.247156,-0.061 -0.36412,-0.017 -0.116963,0.044 -0.214359,0.1374 -0.262922,0.2525 -0.04856,0.1151 -0.04761,0.2501 0.0026,0.3645 0.03147,0.072 0.0808,0.1346 0.111995,0.2064 0.0156,0.036 0.02659,0.074 0.02747,0.1135 8.79e-4,0.039 -0.0089,0.079 -0.03169,0.1111 -0.02386,0.033 -0.06029,0.056 -0.09829,0.071 -0.038,0.015 -0.07817,0.024 -0.117273,0.037 -0.07699,0.024 -0.150066,0.061 -0.215562,0.1078"
       id="path3837"
       inkscape:path-effect="#path-effect3839"
       inkscape:original-d="m 30.434406,1027.1117 c -0.143707,0.071 -0.359268,0.3593 -0.431121,0.2156 -0.07184,-0.1437 0.59179,-0.2156 0.431121,-0.2156 -1.440012,0 -0.258876,0.1511 -0.538901,0.4311 -0.01009,0.014 -0.802403,0.2336 -0.862244,0.3234 -0.265949,0.3989 -0.022,0.041 0.107776,0.431 0.05606,0.1683 -0.190796,0.084 -0.215561,0.1078 -0.08148,0.082 -0.215562,0.2608 -0.215562,0.1078"
       inkscape:connector-curvature="0" />
    <path
       style="fill:none;stroke:#000080;stroke-width:0.67110139000000002;stroke-linecap:butt;stroke-linejoin:miter;stroke-miterlimit:4;stroke-opacity:1;stroke-dasharray:none"
       d="m 30.757748,1011.1602 c -0.120569,0 -0.238343,0.061 -0.316566,0.1531 -0.07822,0.092 -0.1157,0.2172 -0.100736,0.3369 0.01496,0.1197 0.08214,0.232 0.180568,0.3017 0.09842,0.07 0.226595,0.096 0.34451,0.07 0.04576,-0.01 0.08956,-0.027 0.134022,-0.042 0.04446,-0.015 0.09046,-0.027 0.137277,-0.026 0.04682,4e-4 0.095,0.015 0.128559,0.048 0.01678,0.016 0.02954,0.037 0.03546,0.06 0.0059,0.023 0.0048,0.047 -0.0042,0.069 -0.01025,0.025 -0.02999,0.044 -0.05191,0.059 -0.02191,0.015 -0.04622,0.026 -0.06973,0.039 -0.02351,0.012 -0.04669,0.026 -0.06472,0.046 -0.009,0.01 -0.01666,0.021 -0.02189,0.033 -0.0052,0.012 -0.008,0.025 -0.0073,0.039 0.0011,0.021 0.01054,0.04 0.02487,0.055 0.01433,0.015 0.03329,0.025 0.05331,0.03 0.04003,0.01 0.08258,4e-4 0.120705,-0.015 0.03812,-0.016 0.07351,-0.038 0.111592,-0.054 0.03808,-0.016 0.08053,-0.026 0.120652,-0.016 0.03868,0.01 0.07128,0.036 0.09565,0.067 0.02436,0.032 0.04157,0.068 0.05948,0.1033 0.0179,0.036 0.03701,0.071 0.06433,0.1 0.01366,0.014 0.02933,0.027 0.04691,0.037 0.01758,0.01 0.0371,0.015 0.05697,0.016 0.03784,0 0.07374,-0.015 0.11065,-0.024 0.01845,-0 0.03766,-0.01 0.05634,-0 0.01868,0 0.03687,0.012 0.04857,0.027 0.01148,0.015 0.01587,0.034 0.0155,0.052 -3.65e-4,0.019 -0.0051,0.037 -0.01026,0.055 -0.0052,0.018 -0.01076,0.036 -0.01294,0.054 -0.0022,0.019 -7.15e-4,0.038 0.0077,0.054 0.0091,0.018 0.02582,0.031 0.0446,0.038 0.01878,0.01 0.03945,0.01 0.05929,0.01 0.03967,-0.01 0.07531,-0.026 0.11167,-0.043 0.183049,-0.085 0.407178,-0.075 0.582061,0.026 0.174883,0.1007 0.295831,0.2897 0.314102,0.4907 0.01827,0.201 -0.06663,0.4087 -0.220479,0.5393 -0.153851,0.1306 -0.37253,0.1807 -0.567908,0.1301"
       id="path3841"
       inkscape:path-effect="#path-effect3843"
       inkscape:original-d="m 30.757748,1011.1602 c 0.01655,0.2713 -0.04322,0.7112 0.107776,0.8622 0.104747,0.1043 0.535864,0 0.43112,0.1078 -0.07184,0.072 -0.306449,0.1701 -0.215561,0.2155 0.11496,0.057 0.316157,-0.057 0.431123,0 0.457859,0.2289 0.179806,0.1798 0.323341,0.3233 0.0508,0.052 0.164752,-0.051 0.215559,0 0.05082,0.052 -0.0508,0.1648 0,0.2156 0.05082,0.05 0.164754,-0.052 0.215562,0 0.317256,0.3172 -0.342288,0.7355 0.107776,1.1857"
       inkscape:connector-curvature="0" />
    <path
       sodipodi:type="arc"
       style="fill:#000080;fill-opacity:1;stroke:#000080;stroke-width:0.50000000000000000;stroke-linecap:round;stroke-linejoin:miter;stroke-miterlimit:4;stroke-opacity:1;stroke-dasharray:none"
       id="path3857"
       sodipodi:cx="40.314846"
       sodipodi:cy="29.604622"
       sodipodi:rx="0.25551662"
       sodipodi:ry="0.38327494"
       d="m 40.570363,29.604622 a 0.25551662,0.38327494 0 1 1 -0.511034,0 0.25551662,0.38327494 0 1 1 0.511034,0 z"
       transform="matrix(1.3422027,0,0,1.3422027,-9.8754554,977.4249)" />
    <path
       transform="matrix(1.3422027,0,0,1.3422027,-9.8754554,983.4796)"
       d="m 40.570363,29.604622 a 0.25551662,0.38327494 0 1 1 -0.511034,0 0.25551662,0.38327494 0 1 1 0.511034,0 z"
       sodipodi:ry="0.38327494"
       sodipodi:rx="0.25551662"
       sodipodi:cy="29.604622"
       sodipodi:cx="40.314846"
       id="path3859"
       style="fill:#000080;fill-opacity:1;stroke:#000080;stroke-width:0.50000000000000000;stroke-linecap:round;stroke-linejoin:miter;stroke-miterlimit:4;stroke-opacity:1;stroke-dasharray:none"
       sodipodi:type="arc" />
  </g>
</svg>
