<?xml version="1.0" encoding="UTF-8" standalone="no"?>
<!-- Created with Inkscape (http://www.inkscape.org/) -->

<svg
   xmlns:dc="http://purl.org/dc/elements/1.1/"
   xmlns:cc="http://creativecommons.org/ns#"
   xmlns:rdf="http://www.w3.org/1999/02/22-rdf-syntax-ns#"
   xmlns:svg="http://www.w3.org/2000/svg"
   xmlns="http://www.w3.org/2000/svg"
   xmlns:sodipodi="http://sodipodi.sourceforge.net/DTD/sodipodi-0.dtd"
   xmlns:inkscape="http://www.inkscape.org/namespaces/inkscape"
   width="128"
   height="128"
   id="svg2816"
   version="1.1"
   inkscape:version="0.48.5 r10040"
   sodipodi:docname="BirdOrderFly.svg"
   inkscape:export-filename="/home/cg/programming/orders/res/BirdOrderFly.png"
   inkscape:export-xdpi="90"
   inkscape:export-ydpi="90">
  <defs
     id="defs2818">
    <inkscape:perspective
       sodipodi:type="inkscape:persp3d"
       inkscape:vp_x="0 : 32 : 1"
       inkscape:vp_y="0 : 1000 : 0"
       inkscape:vp_z="64 : 32 : 1"
       inkscape:persp3d-origin="32 : 21.333333 : 1"
       id="perspective2824" />
  </defs>
  <sodipodi:namedview
     id="base"
     pagecolor="#ffffff"
     bordercolor="#666666"
     borderopacity="1.0"
     inkscape:pageopacity="0.0"
     inkscape:pageshadow="2"
     inkscape:zoom="4.3752232"
     inkscape:cx="61.094761"
     inkscape:cy="72.97872"
     inkscape:current-layer="layer1"
     showgrid="true"
     inkscape:document-units="px"
     inkscape:grid-bbox="true"
     inkscape:window-width="1278"
     inkscape:window-height="1004"
     inkscape:window-x="0"
     inkscape:window-y="18"
     inkscape:window-maximized="0" />
  <metadata
     id="metadata2821">
    <rdf:RDF>
      <cc:Work
         rdf:about="">
        <dc:format>image/svg+xml</dc:format>
        <dc:type
           rdf:resource="http://purl.org/dc/dcmitype/StillImage" />
        <dc:title></dc:title>
      </cc:Work>
    </rdf:RDF>
  </metadata>
  <g
     id="layer1"
     inkscape:label="Layer 1"
     inkscape:groupmode="layer"
     transform="translate(0,64)">
    <path
       style="fill:#ffffff;fill-opacity:1;stroke:#00309a;stroke-width:4.51835823;stroke-linecap:round;stroke-linejoin:round;stroke-miterlimit:4;stroke-opacity:1;stroke-dasharray:none"
       d="M 41.46875 34.65625 L 29.96875 57.9375 C 29.96875 57.9375 13.960101 84.76338 28.84375 88.6875 C 38.146031 91.140076 46.055571 78.654634 50.6875 68.9375 C 47.122461 79.138519 44.064909 93.279445 53.40625 95.46875 C 62.631595 97.63087 69.515772 85.368961 73.40625 75.75 C 70.666447 85.628799 68.688881 98.986293 77.4375 100.71875 C 85.122674 102.24062 90.386111 93.594386 93.59375 85.4375 C 91.910663 93.784333 91.766333 103.30148 99.21875 105 C 108.5926 107.13644 115.22307 94.280701 118.46875 85.90625 C 116.23635 93.782383 114.28764 105.87359 122.84375 107.59375 C 123.57998 107.74177 124.29417 107.74944 125 107.6875 L 125 49.71875 L 41.46875 34.65625 z "
       transform="translate(0,-64)"
       id="path4843" />
    <path
       style="fill:#3f7fff;fill-opacity:1;stroke:#00309a;stroke-width:4.46473169;stroke-linecap:butt;stroke-linejoin:round;stroke-miterlimit:4;stroke-opacity:1;stroke-dasharray:none"
       d="M 66.1875 27.25 C 57.612384 27.140846 49.67568 27.906646 44 30.125 C 38.346265 32.513768 28.702012 37.967435 24.375 45.9375 C 20.047989 53.907566 10.629241 75.660475 23.625 79.625 C 31.552439 82.043368 37.161344 73.298242 40.34375 66.09375 C 37.666326 74.974809 35.382918 87.836499 43.8125 89.8125 C 53.581032 92.102368 61.419369 75.39251 64.75 66.8125 C 62.009129 75.201792 57.961165 91.705565 67.71875 93.90625 C 75.830516 95.735743 82.698059 84.547928 86.78125 75.6875 C 83.970356 84.305999 81.92763 95.582383 89.5625 97.65625 C 99.033358 100.22883 107.38162 84.289246 110.96875 76.15625 C 108.01285 84.105003 103.43912 99.897691 112.4375 102.25 C 117.07842 103.46321 121.40627 100.096 125 95.46875 L 125 38.78125 C 119.21265 36.169597 112.80829 33.693683 106.90625 32.28125 C 96.530581 30.027957 80.47936 27.431924 66.1875 27.25 z "
       transform="translate(0,-64)"
       id="path4841" />
  </g>
</svg>
