<?xml version="1.0" encoding="UTF-8" standalone="no"?>
<!-- Created with Inkscape (http://www.inkscape.org/) -->

<svg
   xmlns:dc="http://purl.org/dc/elements/1.1/"
   xmlns:cc="http://creativecommons.org/ns#"
   xmlns:rdf="http://www.w3.org/1999/02/22-rdf-syntax-ns#"
   xmlns:svg="http://www.w3.org/2000/svg"
   xmlns="http://www.w3.org/2000/svg"
   xmlns:xlink="http://www.w3.org/1999/xlink"
   xmlns:sodipodi="http://sodipodi.sourceforge.net/DTD/sodipodi-0.dtd"
   xmlns:inkscape="http://www.inkscape.org/namespaces/inkscape"
   width="64px"
   height="64px"
   id="svg2985"
   version="1.1"
   inkscape:version="0.48.5 r10040"
   sodipodi:docname="BugScratch.svg">
  <defs
     id="defs2987" />
  <sodipodi:namedview
     id="base"
     pagecolor="#ffffff"
     bordercolor="#666666"
     borderopacity="1.0"
     inkscape:pageopacity="0.0"
     inkscape:pageshadow="2"
     inkscape:zoom="7.7781746"
     inkscape:cx="35.773243"
     inkscape:cy="37.351535"
     inkscape:current-layer="layer2"
     showgrid="true"
     inkscape:document-units="px"
     inkscape:grid-bbox="true"
     inkscape:window-width="1278"
     inkscape:window-height="1000"
     inkscape:window-x="0"
     inkscape:window-y="22"
     inkscape:window-maximized="0" />
  <metadata
     id="metadata2990">
    <rdf:RDF>
      <cc:Work
         rdf:about="">
        <dc:format>image/svg+xml</dc:format>
        <dc:type
           rdf:resource="http://purl.org/dc/dcmitype/StillImage" />
        <dc:title></dc:title>
      </cc:Work>
    </rdf:RDF>
  </metadata>
  <g
     inkscape:groupmode="layer"
     id="layer2"
     inkscape:label="Legs"
     style="display:inline">
    <path
       style="fill:#ffff00;fill-opacity:1;stroke:#3b003c;stroke-width:1;stroke-linecap:round;stroke-linejoin:miter;stroke-miterlimit:4;stroke-opacity:1;stroke-dasharray:none"
       d="M 52.34375 13.8125 C 42.499878 13.8125 33.904491 17.871125 29.46875 23.8125 C 28.571884 20.526186 27.142323 18.375 25.53125 18.375 C 24.336454 18.375 23.258769 19.59073 22.40625 21.53125 C 21.872353 21.047999 21.292769 20.75 20.6875 20.75 C 19.327497 20.75 18.096662 22.131048 17.21875 24.28125 C 16.759763 23.910295 16.334165 23.6875 15.8125 23.6875 C 14.64247 23.6875 13.559734 24.702172 12.8125 26.34375 C 12.553783 26.27526 12.303761 26.21875 12.03125 26.21875 C 9.6149762 26.21875 7.65625 29.026583 7.65625 32.5 C 7.65625 35.973401 9.6149762 38.78125 12.03125 38.78125 C 12.379485 38.78125 12.706525 38.735477 13.03125 38.625 C 13.75626 39.975661 14.764606 40.78125 15.8125 40.78125 C 16.334165 40.78125 16.759763 40.589707 17.21875 40.21875 C 18.096662 42.36895 19.327497 43.71875 20.6875 43.71875 C 21.386201 43.71875 22.02538 43.384471 22.625 42.75 C 23.437759 44.37432 24.448366 45.34375 25.53125 45.34375 C 26.86071 45.34375 28.083962 43.90543 28.96875 41.5625 C 33.225064 47.914476 42.089164 52.3125 52.34375 52.3125 C 56.540149 52.3125 60.491742 51.577709 64 50.28125 L 64 15.875 C 60.491053 14.568866 56.541261 13.8125 52.34375 13.8125 z "
       id="path4707" />
    <path
       style="fill:#800080;stroke:#3b003c;stroke-width:1;stroke-miterlimit:4;stroke-dasharray:none;display:inline;fill-opacity:1;stroke-opacity:1"
       d="M 64 33.71875 C 39.60082 34.396319 28.730175 34.054219 14.9375 50.25 C 11.516972 54.266477 17.143864 59.474821 27.15625 64 L 64 64 L 64 33.71875 z "
       id="path2993" />
    <use
       x="0"
       y="0"
       xlink:href="#path2993"
       id="use2996"
       transform="matrix(1,0,0,-1,1.1166481e-7,64.400398)"
       width="64"
       height="64"
       style="stroke-width:1;stroke-miterlimit:4;stroke-dasharray:none;display:inline" />
    <path
       style="fill:#ffff00;stroke:#3b003c;stroke-width:1;stroke-miterlimit:4;stroke-dasharray:none;display:inline;stroke-opacity:1"
       d="m 45.71875,0.36363636 0.59375,7.59375004 -8.90625,6.3749996 11.0625,2.46875 4,9.5625 6.03125,-8.6875 5.5,-0.21875 0,-6.53125 -1.4375,-1.5312496 1.4375,-4.65625 0,-4.37500004 -0.625,0 -8.34375,3.03125004 -5.125,-3.03125004 -4.1875,0 z"
       id="path3049"
       inkscape:connector-curvature="0" />
    <path
       style="fill:#ffff00;stroke:#3b003c;stroke-width:1;stroke-miterlimit:4;stroke-dasharray:none;display:inline;stroke-opacity:1"
       d="M 53.84375 37.71875 L 49.8125 47.28125 L 38.75 49.75 L 47.6875 56.125 L 47.0625 64 L 50.78125 64 L 56.375 60.6875 L 64 63.4375 L 64 55 L 63.90625 54.6875 L 64 54.59375 L 64 46.5625 L 59.875 46.40625 L 53.84375 37.71875 z "
       id="path3049-1" />
  </g>
</svg>
