<?xml version="1.0" encoding="UTF-8" standalone="no"?>
<!-- Created with Inkscape (http://www.inkscape.org/) -->

<svg
   xmlns:dc="http://purl.org/dc/elements/1.1/"
   xmlns:cc="http://creativecommons.org/ns#"
   xmlns:rdf="http://www.w3.org/1999/02/22-rdf-syntax-ns#"
   xmlns:svg="http://www.w3.org/2000/svg"
   xmlns="http://www.w3.org/2000/svg"
   xmlns:sodipodi="http://sodipodi.sourceforge.net/DTD/sodipodi-0.dtd"
   xmlns:inkscape="http://www.inkscape.org/namespaces/inkscape"
   width="64"
   height="64"
   id="svg2"
   version="1.1"
   inkscape:version="0.48.5 r10040"
   sodipodi:docname="CastTelepathy.svg"
   inkscape:export-filename="/home/cg/programming/orders/res/CastButtonBase.png"
   inkscape:export-xdpi="180"
   inkscape:export-ydpi="180">
  <defs
     id="defs4" />
  <sodipodi:namedview
     id="base"
     pagecolor="#ffffff"
     bordercolor="#666666"
     borderopacity="1.0"
     inkscape:pageopacity="0.0"
     inkscape:pageshadow="2"
     inkscape:zoom="11.313708"
     inkscape:cx="26.779595"
     inkscape:cy="23.490977"
     inkscape:document-units="px"
     inkscape:current-layer="layer1"
     showgrid="false"
     width="64px"
     inkscape:window-width="1278"
     inkscape:window-height="1004"
     inkscape:window-x="0"
     inkscape:window-y="18"
     inkscape:window-maximized="0" />
  <metadata
     id="metadata7">
    <rdf:RDF>
      <cc:Work
         rdf:about="">
        <dc:format>image/svg+xml</dc:format>
        <dc:type
           rdf:resource="http://purl.org/dc/dcmitype/StillImage" />
        <dc:title></dc:title>
      </cc:Work>
    </rdf:RDF>
  </metadata>
  <g
     inkscape:label="Layer 1"
     inkscape:groupmode="layer"
     id="layer1"
     transform="translate(0,-988.3622)">
    <g
       id="g6032"
       transform="translate(-0.1758285,0)">
      <g
         transform="matrix(-1,0,0,1,64.351657,0)"
         id="g6012">
        <path
           sodipodi:nodetypes="cszzsc"
           inkscape:connector-curvature="0"
           id="path6014"
           d="m 15.827601,1039.3044 c 0,0 4.917565,0.948 6.77119,-2.9596 1.853624,-3.9076 3.12641,-9.8674 3.366263,-11.6679 0.239853,-1.8005 0.39051,-5.4336 -1.183134,-7.6904 -1.573644,-2.2568 -4.305749,-3.8302 -7.659498,-2.9997 -3.446396,0.8535 -4.885383,3.2635 -4.885383,3.2635"
           style="fill:none;stroke:#000000;stroke-width:2;stroke-linecap:butt;stroke-linejoin:miter;stroke-miterlimit:4;stroke-opacity:1;stroke-dasharray:none" />
        <path
           inkscape:connector-curvature="0"
           id="path6016"
           d="m 19.8398,1023.2156 c -0.565264,0.5653 -0.90625,1.325 -0.90625,2.1875 0,1.7252 1.399872,3.125 3.125,3.125 1.725128,0 3.125,-1.3998 3.125,-3.125 0,-0.8625 -0.340986,-1.6222 -0.90625,-2.1875 l -4.4375,0 z"
           style="fill:none;stroke:#000000;stroke-width:1.75275981;stroke-linecap:square;stroke-linejoin:round;stroke-miterlimit:4;stroke-opacity:1;stroke-dasharray:none" />
        <path
           transform="translate(-0.08010013,988.4423)"
           d="m 24.670839,37.246559 c 0,0.398143 -0.322758,0.720901 -0.720901,0.720901 -0.398143,0 -0.720901,-0.322758 -0.720901,-0.720901 0,-0.398143 0.322758,-0.720901 0.720901,-0.720901 0.398143,0 0.720901,0.322758 0.720901,0.720901 z"
           sodipodi:ry="0.72090113"
           sodipodi:rx="0.72090113"
           sodipodi:cy="37.246559"
           sodipodi:cx="23.949938"
           id="path6018"
           style="fill:none;stroke:#000000;stroke-width:2;stroke-linecap:square;stroke-linejoin:round;stroke-miterlimit:4;stroke-opacity:1;stroke-dasharray:none"
           sodipodi:type="arc" />
      </g>
      <g
         id="g6007">
        <path
           style="fill:none;stroke:#000000;stroke-width:2;stroke-linecap:butt;stroke-linejoin:miter;stroke-miterlimit:4;stroke-opacity:1;stroke-dasharray:none"
           d="m 15.827601,1039.3044 c 0,0 4.917565,0.948 6.77119,-2.9596 1.853624,-3.9076 3.12641,-9.8674 3.366263,-11.6679 0.239853,-1.8005 0.39051,-5.4336 -1.183134,-7.6904 -1.573644,-2.2568 -4.305749,-3.8302 -7.659498,-2.9997 -3.446396,0.8535 -4.885383,3.2635 -4.885383,3.2635"
           id="path5953"
           inkscape:connector-curvature="0"
           sodipodi:nodetypes="cszzsc" />
        <path
           style="fill:none;stroke:#000000;stroke-width:1.75275981;stroke-linecap:square;stroke-linejoin:round;stroke-miterlimit:4;stroke-opacity:1;stroke-dasharray:none"
           d="m 19.8398,1023.2156 c -0.565264,0.5653 -0.90625,1.325 -0.90625,2.1875 0,1.7252 1.399872,3.125 3.125,3.125 1.725128,0 3.125,-1.3998 3.125,-3.125 0,-0.8625 -0.340986,-1.6222 -0.90625,-2.1875 l -4.4375,0 z"
           id="path6000"
           inkscape:connector-curvature="0" />
        <path
           sodipodi:type="arc"
           style="fill:none;stroke:#000000;stroke-width:2;stroke-linecap:square;stroke-linejoin:round;stroke-miterlimit:4;stroke-opacity:1;stroke-dasharray:none"
           id="path6005"
           sodipodi:cx="23.949938"
           sodipodi:cy="37.246559"
           sodipodi:rx="0.72090113"
           sodipodi:ry="0.72090113"
           d="m 24.670839,37.246559 c 0,0.398143 -0.322758,0.720901 -0.720901,0.720901 -0.398143,0 -0.720901,-0.322758 -0.720901,-0.720901 0,-0.398143 0.322758,-0.720901 0.720901,-0.720901 0.398143,0 0.720901,0.322758 0.720901,0.720901 z"
           transform="translate(-0.08010013,988.4423)" />
      </g>
    </g>
    <path
       id="path5967"
       style="fill:#ff00ff;stroke:#ff00ff;stroke-width:1.48509002;stroke-linecap:butt;stroke-linejoin:miter;stroke-miterlimit:4;stroke-opacity:1;stroke-dasharray:none"
       d="m 35.829123,1024.3958 -7.266126,-6.639 -6.171924,1.3395 5.655987,-5.6155 7.41631,6.8381 6.145557,-0.9712 z"
       inkscape:connector-curvature="0"
       sodipodi:nodetypes="ccccccc" />
    <path
       style="fill:#ff0000;fill-opacity:1;stroke:#000000;stroke-width:2;stroke-linecap:round;stroke-linejoin:miter;stroke-miterlimit:4;stroke-opacity:1;stroke-dasharray:none"
       d="M 38.312011,1011.8305 32,1018.1425 l -6.312012,-6.312 -3.192006,3.192 6.312011,6.312 -6.312011,6.3122 3.192006,3.192 6.312012,-6.3121 6.312011,6.3121 3.192007,-3.192 -6.312011,-6.3122 6.312011,-6.312 -3.192007,-3.192 z"
       id="rect6063"
       inkscape:connector-curvature="0" />
  </g>
</svg>
