<?xml version="1.0" encoding="UTF-8" standalone="no"?>
<!-- Created with Inkscape (http://www.inkscape.org/) -->

<svg
   xmlns:dc="http://purl.org/dc/elements/1.1/"
   xmlns:cc="http://creativecommons.org/ns#"
   xmlns:rdf="http://www.w3.org/1999/02/22-rdf-syntax-ns#"
   xmlns:svg="http://www.w3.org/2000/svg"
   xmlns="http://www.w3.org/2000/svg"
   xmlns:sodipodi="http://sodipodi.sourceforge.net/DTD/sodipodi-0.dtd"
   xmlns:inkscape="http://www.inkscape.org/namespaces/inkscape"
   width="48"
   height="48"
   id="svg2"
   version="1.1"
   inkscape:version="0.48.5 r10040"
   sodipodi:docname="FogCloud.svg">
  <defs
     id="defs4" />
  <sodipodi:namedview
     id="base"
     pagecolor="#ffffff"
     bordercolor="#666666"
     borderopacity="1.0"
     inkscape:pageopacity="0.0"
     inkscape:pageshadow="2"
     inkscape:zoom="8.25"
     inkscape:cx="14.209259"
     inkscape:cy="17.69697"
     inkscape:document-units="px"
     inkscape:current-layer="layer1"
     showgrid="false"
     inkscape:window-width="1277"
     inkscape:window-height="999"
     inkscape:window-x="0"
     inkscape:window-y="18"
     inkscape:window-maximized="0" />
  <metadata
     id="metadata7">
    <rdf:RDF>
      <cc:Work
         rdf:about="">
        <dc:format>image/svg+xml</dc:format>
        <dc:type
           rdf:resource="http://purl.org/dc/dcmitype/StillImage" />
        <dc:title></dc:title>
      </cc:Work>
    </rdf:RDF>
  </metadata>
  <g
     inkscape:label="Layer 1"
     inkscape:groupmode="layer"
     id="layer1"
     transform="translate(0,-1004.3622)">
    <path
       style="fill:#b6b6b6;fill-opacity:1;stroke:none"
       d="m 17.15625,-6.0625 c -2.661885,0 -4.9384,1.7317665 -5.9375,4.21875 C 10.204883,-3.2101086 8.3084495,-4.125 6.125,-4.125 c -3.246765,0 -5.99621212,1.6884784 -5.99621212,4.19886364 0,0.0624819 -0.12443712,-0.23798818 -0.12121212,-0.17613636 C -1.8628637,0.75218837 -2.2097765,0.69882398 -3.0359848,3.1032197 -3.9000137,5.6176792 -2.07005,6.79965 -1.90625,7.40625 c -1.3354,1.0943 -2.21875,2.8345 -2.21875,4.8125 0,0.7782 0.1312,1.53625 0.375,2.21875 -2.5322,0.8021 -4.375,3.1244 -4.375,5.875 0,2.6723 1.73555,4.9495 4.15625,5.8125 -1.7826,1.1763 -2.9375,3.10535 -2.9375,5.28125 0,2.9293 2.1087,5.383 5,6.1875 -1.1907,1.06 -1.96875,2.83285 -1.96875,4.84375 0,3.097653 1.8383042,5.617554 4.1875,5.84375 0.28370742,1.443702 2.2980043,2.5625 4.78125,2.5625 0.708336,0 1.393415,-0.11745 2,-0.28125 1.094259,1.3354 2.834546,2.21875 4.8125,2.21875 0.778183,0 1.536318,-0.1312 2.21875,-0.375 0.802196,2.5322 3.124444,4.375 5.875,4.375 2.672391,0 4.94955,-1.73555 5.8125,-4.15625 1.176301,1.7826 3.105375,2.9375 5.28125,2.9375 2.929305,0 5.383009,-2.1087 6.1875,-5 1.060009,1.1907 2.832931,1.96875 4.84375,1.96875 3.124652,0 5.898646,-1.750326 6.086174,-4.128788 2.293957,-0.300643 3.851326,-2.921181 3.851326,-5.964962 0,-2.1835 -0.91485,-4.07985 -2.28125,-5.09375 2.487,-0.9991 4.21875,-3.2756 4.21875,-5.9375 0,-2.9605 -2.15485,-5.44185 -5.09375,-6.21875 1.4736,-1.1316 2.4375,-2.8973 2.4375,-4.875 0,-0.9926 -0.2636,-1.9189 -0.6875,-2.75 1.7468,-0.999 2.9375,-3.02075 2.9375,-5.34375 0,-2.4496 -1.31525,-4.5656 -3.21875,-5.5 0.071,-0.4192 0.09375,-0.8555 0.09375,-1.3125 0,-2.448829 -0.842923,-4.93851595 -2.257576,-5.26609848 -0.378655,-2.30310602 -2.736412,-3.12949592 -4.206439,-3.15625002 -0.457019,0 -1.741775,0.5076825 -2.160985,0.5785985 -0.934378,-1.9035487 -3.050385,-3.21875 -5.5,-3.21875 -2.32301,0 -4.344813,1.1907064 -5.34375,2.9375 -0.83114,-0.4238414 -1.757482,-0.6875 -2.75,-0.6875 -1.977799,0 -3.743454,0.9639407 -4.875,2.4375 -0.77692,-2.9388766 -3.258222,-5.09375 -6.21875,-5.09375 z"
       transform="translate(0,1004.3622)"
       id="path2989"
       inkscape:connector-curvature="0"
       sodipodi:nodetypes="scsscscscscscscscscscscscscscscscscccscscs" />
  </g>
</svg>
