<?xml version="1.0" encoding="UTF-8" standalone="no"?>
<!-- Created with Inkscape (http://www.inkscape.org/) -->

<svg
   xmlns:dc="http://purl.org/dc/elements/1.1/"
   xmlns:cc="http://creativecommons.org/ns#"
   xmlns:rdf="http://www.w3.org/1999/02/22-rdf-syntax-ns#"
   xmlns:svg="http://www.w3.org/2000/svg"
   xmlns="http://www.w3.org/2000/svg"
   xmlns:xlink="http://www.w3.org/1999/xlink"
   xmlns:sodipodi="http://sodipodi.sourceforge.net/DTD/sodipodi-0.dtd"
   xmlns:inkscape="http://www.inkscape.org/namespaces/inkscape"
   width="128"
   height="128"
   id="svg2816"
   version="1.1"
   inkscape:version="0.48.5 r10040"
   sodipodi:docname="MonsterOrderBurst.svg"
   inkscape:export-filename="/home/cg/programming/orders/res/MonsterOrderBurst.png"
   inkscape:export-xdpi="90"
   inkscape:export-ydpi="90">
  <defs
     id="defs2818">
    <linearGradient
       id="linearGradient4489">
      <stop
         style="stop-color:#ffff00;stop-opacity:1;"
         offset="0"
         id="stop4491" />
      <stop
         id="stop4497"
         offset="0.40357986"
         style="stop-color:#ff7f00;stop-opacity:1;" />
      <stop
         style="stop-color:#aa0000;stop-opacity:1;"
         offset="1"
         id="stop4493" />
    </linearGradient>
    <linearGradient
       id="linearGradient4316">
      <stop
         style="stop-color:#ffff00;stop-opacity:0;"
         offset="0"
         id="stop4318" />
      <stop
         id="stop4324"
         offset="0.79248506"
         style="stop-color:#ffff00;stop-opacity:1;" />
      <stop
         style="stop-color:#ffffff;stop-opacity:1;"
         offset="0.9281339"
         id="stop4326" />
      <stop
         id="stop4332"
         offset="0.95290494"
         style="stop-color:#7b7b7b;stop-opacity:1;" />
      <stop
         style="stop-color:#000000;stop-opacity:1;"
         offset="1"
         id="stop4320" />
    </linearGradient>
    <inkscape:perspective
       sodipodi:type="inkscape:persp3d"
       inkscape:vp_x="0 : 32 : 1"
       inkscape:vp_y="0 : 1000 : 0"
       inkscape:vp_z="64 : 32 : 1"
       inkscape:persp3d-origin="32 : 21.333333 : 1"
       id="perspective2824" />
    <radialGradient
       inkscape:collect="always"
       xlink:href="#linearGradient4489"
       id="radialGradient4495"
       cx="63.993164"
       cy="63.299728"
       fx="63.993164"
       fy="63.299728"
       r="11.683768"
       gradientUnits="userSpaceOnUse"
       gradientTransform="matrix(0.87082335,0,0,0.87357895,8.2664227,8.0024186)" />
  </defs>
  <sodipodi:namedview
     id="base"
     pagecolor="#ffffff"
     bordercolor="#666666"
     borderopacity="1.0"
     inkscape:pageopacity="0.0"
     inkscape:pageshadow="2"
     inkscape:zoom="4"
     inkscape:cx="49.726226"
     inkscape:cy="45.123631"
     inkscape:current-layer="layer1"
     showgrid="true"
     inkscape:document-units="px"
     inkscape:grid-bbox="true"
     inkscape:window-width="1278"
     inkscape:window-height="1004"
     inkscape:window-x="0"
     inkscape:window-y="18"
     inkscape:window-maximized="0" />
  <metadata
     id="metadata2821">
    <rdf:RDF>
      <cc:Work
         rdf:about="">
        <dc:format>image/svg+xml</dc:format>
        <dc:type
           rdf:resource="http://purl.org/dc/dcmitype/StillImage" />
        <dc:title></dc:title>
      </cc:Work>
    </rdf:RDF>
  </metadata>
  <g
     id="layer1"
     inkscape:label="Layer 1"
     inkscape:groupmode="layer"
     transform="translate(0,64)">
    <g
       id="g4423" />
    <path
       sodipodi:nodetypes="czczc"
       inkscape:connector-curvature="0"
       id="path4409"
       d="m 45.114229,17.350033 c 0,0 -11.468601,5.959022 -15.012894,10.733598 -3.544294,4.774577 -9.872877,15.873616 -9.872877,15.873616 0,0 11.099039,-6.328583 15.873616,-9.872877 4.774576,-3.544293 10.733598,-15.012894 10.733598,-15.012894"
       style="fill:#aa0000;fill-opacity:1;stroke:#550000;stroke-width:2.86072135;stroke-linecap:butt;stroke-linejoin:miter;stroke-miterlimit:4;stroke-opacity:1;stroke-dasharray:none" />
    <path
       style="fill:#aa0000;fill-opacity:1;stroke:#550000;stroke-width:2.86072135;stroke-linecap:butt;stroke-linejoin:miter;stroke-miterlimit:4;stroke-opacity:1;stroke-dasharray:none"
       d="m 83.071476,17.164328 c 0,0 11.468601,5.959022 15.012895,10.733599 3.544289,4.774576 9.872879,15.873615 9.872879,15.873615 0,0 -11.099042,-6.328583 -15.873618,-9.872876 C 87.309055,30.354372 81.350033,18.885771 81.350033,18.885771"
       id="path4417"
       inkscape:connector-curvature="0"
       sodipodi:nodetypes="czczc" />
    <path
       style="fill:#aa0000;fill-opacity:1;stroke:#550000;stroke-width:2.86072135;stroke-linecap:butt;stroke-linejoin:miter;stroke-miterlimit:4;stroke-opacity:1;stroke-dasharray:none"
       d="m 44.928524,-17.164328 c 0,0 -11.4686,-5.959022 -15.012894,-10.733599 -3.544294,-4.774576 -9.872877,-15.873615 -9.872877,-15.873615 0,0 11.099039,6.328583 15.873616,9.872876 4.774576,3.544294 10.733598,15.012895 10.733598,15.012895"
       id="path4419"
       inkscape:connector-curvature="0"
       sodipodi:nodetypes="czczc" />
    <path
       sodipodi:nodetypes="czczc"
       inkscape:connector-curvature="0"
       id="path4421"
       d="m 82.885771,-17.350033 c 0,0 11.468601,-5.959022 15.012898,-10.733598 3.544291,-4.774577 9.872871,-15.873616 9.872871,-15.873616 0,0 -11.099034,6.328583 -15.873613,9.872877 -4.774577,3.544293 -10.733598,15.012894 -10.733598,15.012894"
       style="fill:#aa0000;fill-opacity:1;stroke:#550000;stroke-width:2.86072135;stroke-linecap:butt;stroke-linejoin:miter;stroke-miterlimit:4;stroke-opacity:1;stroke-dasharray:none" />
    <path
       sodipodi:nodetypes="czczc"
       inkscape:connector-curvature="0"
       id="path4431"
       d="m 62.548817,20.194149 c 0,0 -3.55195,9.513958 -2.702579,14.055334 C 60.695612,38.790858 64,48.304816 64,48.304816 c 0,0 3.30439,-9.513958 4.153763,-14.055333 0.849371,-4.541376 -2.702579,-14.055334 -2.702579,-14.055334"
       style="fill:#aa0000;fill-opacity:1;stroke:#550000;stroke-width:3;stroke-linecap:butt;stroke-linejoin:miter;stroke-miterlimit:4;stroke-opacity:1;stroke-dasharray:none" />
    <path
       style="fill:#aa0000;fill-opacity:1;stroke:#550000;stroke-width:3;stroke-linecap:butt;stroke-linejoin:miter;stroke-miterlimit:4;stroke-opacity:1;stroke-dasharray:none"
       d="m 84.19415,-1.4511839 c 0,0 9.513957,-3.5519502 14.055332,-2.702578 C 102.79086,-3.3043879 112.30482,-1.9364395e-8 112.30482,-1.9364395e-8 112.30482,-1.9364395e-8 102.79086,3.3043897 98.249482,4.1537619 93.708107,5.0031341 84.19415,1.4511839 84.19415,1.4511839"
       id="path4433"
       inkscape:connector-curvature="0"
       sodipodi:nodetypes="czczc" />
    <path
       style="fill:#aa0000;fill-opacity:1;stroke:#550000;stroke-width:3;stroke-linecap:butt;stroke-linejoin:miter;stroke-miterlimit:4;stroke-opacity:1;stroke-dasharray:none"
       d="m 43.805852,1.4511839 c 0,0 -9.513958,3.5519502 -14.055334,2.702578 C 25.209143,3.3043897 15.695185,0 15.695185,0 c 0,0 9.513958,-3.3043898 14.055333,-4.1537619 4.541376,-0.8493722 14.055334,2.702578 14.055334,2.702578"
       id="path4435"
       inkscape:connector-curvature="0"
       sodipodi:nodetypes="czczc" />
    <path
       sodipodi:nodetypes="czczc"
       inkscape:connector-curvature="0"
       id="path4437"
       d="m 65.451181,-20.194154 c 0,0 3.551945,-9.514055 2.702574,-14.055475 -0.849373,-4.54142 -4.153756,-14.055475 -4.153756,-14.055475 0,0 -3.304384,9.514054 -4.153755,14.055475 -0.84937,4.54142 2.702575,14.055475 2.702575,14.055475"
       style="fill:#aa0000;fill-opacity:1;stroke:#550000;stroke-width:3;stroke-linecap:butt;stroke-linejoin:miter;stroke-miterlimit:4;stroke-opacity:1;stroke-dasharray:none" />
    <path
       sodipodi:type="star"
       style="fill:url(#radialGradient4495);fill-opacity:1;stroke:#aa0000;stroke-opacity:1;stroke-width:1.32954307;stroke-miterlimit:4;stroke-dasharray:none"
       id="path4439"
       sodipodi:sides="12"
       sodipodi:cx="63.993164"
       sodipodi:cy="63.299728"
       sodipodi:r1="6.9562569"
       sodipodi:r2="10.22056"
       sodipodi:arg1="0.17135674"
       sodipodi:arg2="0.6084745"
       inkscape:flatsided="false"
       inkscape:rounded="0"
       inkscape:randomized="0"
       d="m 70.847542,64.485905 1.531806,4.656063 -3.043207,-1.387792 -1.001449,4.798173 -1.941598,-2.723467 -3.266366,3.654615 -0.319741,-3.329391 -4.656063,1.531806 1.387792,-3.043207 -4.798172,-1.001448 2.723466,-1.941599 -3.654614,-3.266366 3.32939,-0.31974 -1.531806,-4.656064 3.043207,1.387792 1.001449,-4.798172 1.941598,2.723467 3.266366,-3.654615 0.319741,3.329391 4.656063,-1.531807 -1.387792,3.043207 4.798172,1.001449 -2.723466,1.941599 3.654614,3.266366 z"
       transform="matrix(1.5042762,0,0,1.5042762,-32.191809,-94.866288)"
       inkscape:transform-center-x="-0.21352832"
       inkscape:transform-center-y="1.055946" />
  </g>
</svg>
