<?xml version="1.0" encoding="UTF-8" standalone="no"?>
<!-- Created with Inkscape (http://www.inkscape.org/) -->

<svg
   xmlns:dc="http://purl.org/dc/elements/1.1/"
   xmlns:cc="http://creativecommons.org/ns#"
   xmlns:rdf="http://www.w3.org/1999/02/22-rdf-syntax-ns#"
   xmlns:svg="http://www.w3.org/2000/svg"
   xmlns="http://www.w3.org/2000/svg"
   xmlns:sodipodi="http://sodipodi.sourceforge.net/DTD/sodipodi-0.dtd"
   xmlns:inkscape="http://www.inkscape.org/namespaces/inkscape"
   width="128"
   height="128"
   id="svg2816"
   version="1.1"
   inkscape:version="0.48.5 r10040"
   sodipodi:docname="OrderWait.svg"
   inkscape:export-filename="/home/cg/programming/orders/orders/res/svgs/OrderButtonBase.png"
   inkscape:export-xdpi="90"
   inkscape:export-ydpi="90">
  <defs
     id="defs2818">
    <inkscape:perspective
       sodipodi:type="inkscape:persp3d"
       inkscape:vp_x="0 : 32 : 1"
       inkscape:vp_y="0 : 1000 : 0"
       inkscape:vp_z="64 : 32 : 1"
       inkscape:persp3d-origin="32 : 21.333333 : 1"
       id="perspective2824" />
  </defs>
  <sodipodi:namedview
     id="base"
     pagecolor="#ffffff"
     bordercolor="#666666"
     borderopacity="1.0"
     inkscape:pageopacity="0.0"
     inkscape:pageshadow="2"
     inkscape:zoom="6.2421875"
     inkscape:cx="44.215269"
     inkscape:cy="64"
     inkscape:current-layer="layer1"
     showgrid="true"
     inkscape:document-units="px"
     inkscape:grid-bbox="true"
     inkscape:window-width="1278"
     inkscape:window-height="1004"
     inkscape:window-x="0"
     inkscape:window-y="18"
     inkscape:window-maximized="0" />
  <metadata
     id="metadata2821">
    <rdf:RDF>
      <cc:Work
         rdf:about="">
        <dc:format>image/svg+xml</dc:format>
        <dc:type
           rdf:resource="http://purl.org/dc/dcmitype/StillImage" />
        <dc:title />
      </cc:Work>
    </rdf:RDF>
  </metadata>
  <g
     id="layer1"
     inkscape:label="Layer 1"
     inkscape:groupmode="layer"
     transform="translate(0,64)">
    <g
       id="g4066"
       transform="translate(2.9999995,0)">
      <path
         transform="matrix(0.72727273,0,0,0.72727273,16.636364,-16.909091)"
         d="m 72,59 c 0,6.075132 -4.924868,11 -11,11 -6.075132,0 -11,-4.924868 -11,-11 0,-6.075132 4.924868,-11 11,-11 6.075132,0 11,4.924868 11,11 z"
         sodipodi:ry="11"
         sodipodi:rx="11"
         sodipodi:cy="59"
         sodipodi:cx="61"
         id="path4023"
         style="fill:#000000;stroke:none"
         sodipodi:type="arc" />
      <path
         sodipodi:type="arc"
         style="fill:#000000;stroke:none"
         id="path4025"
         sodipodi:cx="61"
         sodipodi:cy="59"
         sodipodi:rx="11"
         sodipodi:ry="11"
         d="m 72,59 c 0,6.075132 -4.924868,11 -11,11 -6.075132,0 -11,-4.924868 -11,-11 0,-6.075132 4.924868,-11 11,-11 6.075132,0 11,4.924868 11,11 z"
         transform="matrix(0.72727273,0,0,0.72727273,43.636364,-16.909091)" />
      <path
         sodipodi:type="arc"
         style="fill:#000000;stroke:none"
         id="path4027"
         sodipodi:cx="61"
         sodipodi:cy="59"
         sodipodi:rx="11"
         sodipodi:ry="11"
         d="m 72,59 c 0,6.075132 -4.924868,11 -11,11 -6.075132,0 -11,-4.924868 -11,-11 0,-6.075132 4.924868,-11 11,-11 6.075132,0 11,4.924868 11,11 z"
         transform="matrix(0.72727273,0,0,0.72727273,-10.363636,-16.909091)" />
    </g>
  </g>
</svg>
