<?xml version="1.0" encoding="UTF-8" standalone="no"?>
<!-- Created with Inkscape (http://www.inkscape.org/) -->

<svg
   xmlns:dc="http://purl.org/dc/elements/1.1/"
   xmlns:cc="http://creativecommons.org/ns#"
   xmlns:rdf="http://www.w3.org/1999/02/22-rdf-syntax-ns#"
   xmlns:svg="http://www.w3.org/2000/svg"
   xmlns="http://www.w3.org/2000/svg"
   xmlns:sodipodi="http://sodipodi.sourceforge.net/DTD/sodipodi-0.dtd"
   xmlns:inkscape="http://www.inkscape.org/namespaces/inkscape"
   width="128"
   height="128"
   id="svg8458"
   version="1.1"
   inkscape:version="0.48.5 r10040"
   sodipodi:docname="New document 58">
  <defs
     id="defs8460" />
  <sodipodi:namedview
     id="base"
     pagecolor="#ffffff"
     bordercolor="#666666"
     borderopacity="1.0"
     inkscape:pageopacity="0.0"
     inkscape:pageshadow="2"
     inkscape:zoom="4"
     inkscape:cx="62.017068"
     inkscape:cy="59.533965"
     inkscape:document-units="px"
     inkscape:current-layer="layer1"
     showgrid="false"
     inkscape:window-width="1278"
     inkscape:window-height="1004"
     inkscape:window-x="0"
     inkscape:window-y="18"
     inkscape:window-maximized="0" />
  <metadata
     id="metadata8463">
    <rdf:RDF>
      <cc:Work
         rdf:about="">
        <dc:format>image/svg+xml</dc:format>
        <dc:type
           rdf:resource="http://purl.org/dc/dcmitype/StillImage" />
        <dc:title></dc:title>
      </cc:Work>
    </rdf:RDF>
  </metadata>
  <g
     inkscape:label="Layer 1"
     inkscape:groupmode="layer"
     id="layer1"
     transform="translate(0,-924.36218)">
    <path
       style="fill:#ffffff;fill-opacity:1;stroke:#000000;stroke-width:4;stroke-linejoin:round;stroke-miterlimit:4;stroke-opacity:1;stroke-dasharray:none"
       d="m 61.56645,931.79968 c -10.900237,-0.33284 -20.395426,6.19923 -25.6875,12.125 l 13.0625,11.3125 c 6.433053,-7.34638 17.608564,-8.11915 25,-1.71875 7.416803,6.42243 8.234921,17.61447 1.8125,25.03125 -3.065237,3.5399 -7.427272,5.73562 -12.09375,6.09375 l 0,0.0937 -8.101651,0 0,33.13647 16.882901,0 0,-17.3864 c 6.338347,-1.8998 12.068616,-5.54366 16.46875,-10.62507 12.68416,-14.64806 11.085545,-36.81583 -3.5625,-49.5 -6.86627,-5.94569 -15.364624,-8.76357 -23.78125,-8.5625 z"
       id="path8976"
       inkscape:connector-curvature="0"
       sodipodi:nodetypes="cccssccccccsscc" />
    <path
       sodipodi:type="arc"
       style="fill:#ffffff;fill-opacity:1;stroke:#000000;stroke-width:3.97548119;stroke-linecap:round;stroke-linejoin:round;stroke-miterlimit:4;stroke-opacity:1;stroke-dasharray:none"
       id="path8986"
       sodipodi:cx="64.160202"
       sodipodi:cy="112.86108"
       sodipodi:rx="10.172716"
       sodipodi:ry="9.6921148"
       d="m 74.332918,112.86108 a 10.172716,9.6921148 0 1 1 -20.345432,0 10.172716,9.6921148 0 1 1 20.345432,0 z"
       transform="matrix(0.98211221,0,0,1.030812,0.98748219,919.93602)" />
  </g>
</svg>
