<?xml version="1.0" encoding="UTF-8" standalone="no"?>
<!-- Created with Inkscape (http://www.inkscape.org/) -->

<svg
   xmlns:dc="http://purl.org/dc/elements/1.1/"
   xmlns:cc="http://creativecommons.org/ns#"
   xmlns:rdf="http://www.w3.org/1999/02/22-rdf-syntax-ns#"
   xmlns:svg="http://www.w3.org/2000/svg"
   xmlns="http://www.w3.org/2000/svg"
   xmlns:xlink="http://www.w3.org/1999/xlink"
   xmlns:sodipodi="http://sodipodi.sourceforge.net/DTD/sodipodi-0.dtd"
   xmlns:inkscape="http://www.inkscape.org/namespaces/inkscape"
   width="500"
   height="200"
   id="svg3236"
   version="1.1"
   inkscape:version="0.48.5 r10040"
   sodipodi:docname="New document 3">
  <defs
     id="defs3238">
    <linearGradient
       id="linearGradient3797">
      <stop
         id="stop3799"
         offset="0"
         style="stop-color:#ffff00;stop-opacity:1;" />
      <stop
         id="stop3801"
         offset="1"
         style="stop-color:#bbff00;stop-opacity:1;" />
    </linearGradient>
    <linearGradient
       id="linearGradient3805">
      <stop
         id="stop3807"
         offset="0"
         style="stop-color:#262500;stop-opacity:1;" />
      <stop
         id="stop3809"
         offset="1"
         style="stop-color:#699f00;stop-opacity:1;" />
    </linearGradient>
    <inkscape:perspective
       sodipodi:type="inkscape:persp3d"
       inkscape:vp_x="0 : 32 : 1"
       inkscape:vp_y="0 : 1000 : 0"
       inkscape:vp_z="64 : 32 : 1"
       inkscape:persp3d-origin="32 : 21.333333 : 1"
       id="perspective2824" />
    <clipPath
       id="clipPath4210"
       clipPathUnits="userSpaceOnUse">
      <g
         transform="translate(0.46013035,-987.90889)"
         id="g4212"
         inkscape:label="Layer 1">
        <path
           sodipodi:nodetypes="ccccccccccc"
           inkscape:connector-curvature="0"
           id="path4214"
           d="M 31.53987,1.1577492 40.623998,20.793325 61.389771,20.844973 47.002231,38.26814 53.988122,61.935636 31.539869,48.596033 9.091615,61.935635 16.077508,38.26814 1.6899683,20.844971 22.45574,20.793325 z"
           inkscape:transform-center-y="-2.9971004"
           style="fill:#ffffff;fill-opacity:1;stroke:#000000;stroke-width:2;stroke-linecap:round;stroke-linejoin:round;stroke-miterlimit:4;stroke-opacity:1"
           transform="translate(0,988.3622)" />
      </g>
    </clipPath>
    <linearGradient
       y2="42.644451"
       x2="23.426031"
       y1="42.644451"
       x1="3.0761456"
       gradientUnits="userSpaceOnUse"
       id="linearGradient4025"
       xlink:href="#linearGradient3971"
       inkscape:collect="always" />
    <linearGradient
       y2="42.644451"
       x2="23.426031"
       y1="42.644451"
       x1="3.0761456"
       gradientUnits="userSpaceOnUse"
       id="linearGradient4023"
       xlink:href="#linearGradient3971"
       inkscape:collect="always" />
    <linearGradient
       y2="42.644451"
       x2="23.426031"
       y1="42.644451"
       x1="3.0761456"
       gradientUnits="userSpaceOnUse"
       id="linearGradient4021"
       xlink:href="#linearGradient3971"
       inkscape:collect="always" />
    <linearGradient
       y2="42.644451"
       x2="23.426031"
       y1="42.644451"
       x1="3.0761456"
       gradientUnits="userSpaceOnUse"
       id="linearGradient3999"
       xlink:href="#linearGradient3971"
       inkscape:collect="always" />
    <linearGradient
       y2="42.644451"
       x2="23.426031"
       y1="42.644451"
       x1="3.0761456"
       gradientUnits="userSpaceOnUse"
       id="linearGradient3991"
       xlink:href="#linearGradient3971"
       inkscape:collect="always" />
    <linearGradient
       id="linearGradient3971">
      <stop
         id="stop3973"
         offset="0"
         style="stop-color:#c88e00;stop-opacity:1;" />
      <stop
         id="stop3975"
         offset="1"
         style="stop-color:#aa0000;stop-opacity:1;" />
    </linearGradient>
    <inkscape:path-effect
       is_visible="true"
       id="path-effect4224"
       effect="spiro" />
    <inkscape:path-effect
       is_visible="true"
       id="path-effect4243"
       effect="spiro" />
    <inkscape:path-effect
       effect="spiro"
       id="path-effect4249"
       is_visible="true" />
    <linearGradient
       gradientTransform="matrix(0.67435582,0.73840655,-0.73840655,0.67435582,71.476201,966.64529)"
       y2="42.644451"
       x2="23.426031"
       y1="36.170689"
       x1="2.1904693"
       gradientUnits="userSpaceOnUse"
       id="linearGradient11039"
       xlink:href="#linearGradient3971-7"
       inkscape:collect="always" />
    <linearGradient
       gradientTransform="matrix(0.72553672,0.53724309,-0.46214952,0.84342745,47.217835,968.66412)"
       y2="42.644451"
       x2="23.426031"
       y1="42.644451"
       x1="3.0761456"
       gradientUnits="userSpaceOnUse"
       id="linearGradient11035"
       xlink:href="#linearGradient3971-7"
       inkscape:collect="always" />
    <linearGradient
       gradientTransform="matrix(1.0353042,0.48676004,-0.53251853,0.94634215,36.479827,974.28058)"
       y2="43.712921"
       x2="22.036234"
       y1="37.661114"
       x1="2.4522941"
       gradientUnits="userSpaceOnUse"
       id="linearGradient11031"
       xlink:href="#linearGradient3971-7"
       inkscape:collect="always" />
    <linearGradient
       gradientTransform="matrix(0.97139686,0.34059092,-0.40498202,0.81694728,20.4827,989.65369)"
       y2="42.644451"
       x2="23.426031"
       y1="42.644451"
       x1="3.0761456"
       gradientUnits="userSpaceOnUse"
       id="linearGradient11027"
       xlink:href="#linearGradient3971-7"
       inkscape:collect="always" />
    <linearGradient
       gradientTransform="translate(4.6849673,1000.2106)"
       y2="43.983013"
       x2="21.920149"
       y1="34.613079"
       x1="-3.9513054"
       gradientUnits="userSpaceOnUse"
       id="linearGradient11023"
       xlink:href="#linearGradient3971-7"
       inkscape:collect="always" />
    <linearGradient
       y2="42.644451"
       x2="23.426031"
       y1="42.644451"
       x1="3.0761456"
       gradientUnits="userSpaceOnUse"
       id="linearGradient4025-3"
       xlink:href="#linearGradient3971-7"
       inkscape:collect="always" />
    <linearGradient
       y2="42.644451"
       x2="23.426031"
       y1="42.644451"
       x1="3.0761456"
       gradientUnits="userSpaceOnUse"
       id="linearGradient4023-7"
       xlink:href="#linearGradient3971-7"
       inkscape:collect="always" />
    <linearGradient
       y2="42.644451"
       x2="23.426031"
       y1="42.644451"
       x1="3.0761456"
       gradientUnits="userSpaceOnUse"
       id="linearGradient4021-5"
       xlink:href="#linearGradient3971-7"
       inkscape:collect="always" />
    <linearGradient
       y2="42.644451"
       x2="23.426031"
       y1="42.644451"
       x1="3.0761456"
       gradientUnits="userSpaceOnUse"
       id="linearGradient3999-9"
       xlink:href="#linearGradient3971-7"
       inkscape:collect="always" />
    <linearGradient
       y2="42.644451"
       x2="23.426031"
       y1="42.644451"
       x1="3.0761456"
       gradientUnits="userSpaceOnUse"
       id="linearGradient3991-0"
       xlink:href="#linearGradient3971-7"
       inkscape:collect="always" />
    <linearGradient
       id="linearGradient3971-7">
      <stop
         id="stop3973-8"
         offset="0"
         style="stop-color:#c88e00;stop-opacity:1;" />
      <stop
         id="stop3975-7"
         offset="1"
         style="stop-color:#aa0000;stop-opacity:1;" />
    </linearGradient>
    <clipPath
       id="clipPath3896"
       clipPathUnits="userSpaceOnUse">
      <g
         transform="translate(0.46013035,0.4532874)"
         id="g3898"
         inkscape:label="Layer 1">
        <path
           sodipodi:nodetypes="ccccccccccc"
           inkscape:connector-curvature="0"
           id="path3900"
           d="M 31.53987,1.1577492 40.623998,20.793325 61.389771,20.844973 47.002231,38.26814 53.988122,61.935636 31.539869,48.596033 9.091615,61.935635 16.077508,38.26814 1.6899683,20.844971 22.45574,20.793325 z"
           inkscape:transform-center-y="-2.9971004"
           style="fill:#ffffff;fill-opacity:1;stroke:#000000;stroke-width:2;stroke-linecap:round;stroke-linejoin:round;stroke-miterlimit:4;stroke-opacity:1"
           transform="translate(0,988.3622)" />
      </g>
    </clipPath>
    <linearGradient
       id="linearGradient3797-2">
      <stop
         id="stop3799-3"
         offset="0"
         style="stop-color:#ffff00;stop-opacity:1;" />
      <stop
         id="stop3801-6"
         offset="1"
         style="stop-color:#bbff00;stop-opacity:1;" />
    </linearGradient>
    <linearGradient
       id="linearGradient3805-8">
      <stop
         id="stop3807-8"
         offset="0"
         style="stop-color:#262500;stop-opacity:1;" />
      <stop
         id="stop3809-6"
         offset="1"
         style="stop-color:#699f00;stop-opacity:1;" />
    </linearGradient>
    <inkscape:path-effect
       is_visible="true"
       id="path-effect3954"
       effect="spiro" />
    <inkscape:path-effect
       is_visible="true"
       id="path-effect3958"
       effect="spiro" />
    <linearGradient
       inkscape:collect="always"
       xlink:href="#linearGradient3797"
       id="linearGradient4697"
       gradientUnits="userSpaceOnUse"
       x1="29.459849"
       y1="1009.6536"
       x2="42.125894"
       y2="1009.6536" />
    <linearGradient
       inkscape:collect="always"
       xlink:href="#linearGradient3805"
       id="linearGradient4699"
       gradientUnits="userSpaceOnUse"
       x1="29.459849"
       y1="1009.6536"
       x2="42.125894"
       y2="1009.6536" />
  </defs>
  <sodipodi:namedview
     id="base"
     pagecolor="#ffffff"
     bordercolor="#666666"
     borderopacity="1.0"
     inkscape:pageopacity="0.0"
     inkscape:pageshadow="2"
     inkscape:zoom="0.792"
     inkscape:cx="272.38497"
     inkscape:cy="67.111697"
     inkscape:document-units="px"
     inkscape:current-layer="layer1"
     showgrid="false"
     showguides="true"
     inkscape:guide-bbox="true"
     inkscape:window-width="1278"
     inkscape:window-height="1004"
     inkscape:window-x="0"
     inkscape:window-y="18"
     inkscape:window-maximized="0" />
  <metadata
     id="metadata3241">
    <rdf:RDF>
      <cc:Work
         rdf:about="">
        <dc:format>image/svg+xml</dc:format>
        <dc:type
           rdf:resource="http://purl.org/dc/dcmitype/StillImage" />
        <dc:title></dc:title>
      </cc:Work>
    </rdf:RDF>
  </metadata>
  <g
     inkscape:label="Layer 1"
     inkscape:groupmode="layer"
     id="layer1"
     transform="translate(0,-852.36215)">
    <g
       id="g4812">
      <rect
         style="fill:#ffaaaa;fill-opacity:1;stroke:#000000;stroke-width:7.97076559;stroke-linecap:butt;stroke-linejoin:miter;stroke-miterlimit:4;stroke-opacity:1;stroke-dasharray:none;stroke-dashoffset:0"
         id="rect4642"
         width="98.866837"
         height="98.866837"
         x="3.9853823"
         y="949.50995"
         ry="0" />
      <g
         inkscape:label="Layer 1"
         id="layer1-3"
         transform="matrix(1.5941531,0,0,1.5941531,2.3543362,-630.09276)"
         style="display:inline">
        <path
           sodipodi:nodetypes="cccc"
           style="fill:url(#linearGradient11035);fill-opacity:1;stroke:none"
           d="m 38.646999,1019.5417 -6.308195,-17.9974 13.999092,12.3299 z"
           id="path4003"
           inkscape:connector-curvature="0" />
        <path
           style="fill:none;stroke:#550000;stroke-width:2;stroke-linecap:butt;stroke-linejoin:miter;stroke-miterlimit:4;stroke-opacity:1;stroke-dasharray:none"
           d="m 38.646999,1019.5417 -6.308195,-17.9974 13.999092,12.3299"
           id="path4005"
           inkscape:connector-curvature="0" />
        <path
           inkscape:connector-curvature="0"
           id="path4017"
           d="m 19.325179,1035.5305 -10.848606,-14.582 19.097009,8.2842 z"
           style="fill:url(#linearGradient11027);fill-opacity:1;stroke:none"
           sodipodi:nodetypes="cccc" />
        <path
           inkscape:connector-curvature="0"
           id="path4019"
           d="m 19.325179,1035.5305 -10.848606,-14.582 19.097009,8.2842"
           style="fill:none;stroke:#550000;stroke-width:2;stroke-linecap:butt;stroke-linejoin:miter;stroke-miterlimit:4;stroke-opacity:1;stroke-dasharray:none" />
        <path
           style="fill:#aa0000;stroke:#550000;stroke-width:2;stroke-linecap:butt;stroke-linejoin:round;stroke-miterlimit:4;stroke-opacity:1;stroke-dasharray:none"
           d="m 62.21875,12.5 c -25.056691,0 -46.41408,21.489134 -54.625,51.625 l 56.28125,0 0,-51.5625 C 63.32402,12.538595 62.773838,12.5 62.21875,12.5 z"
           transform="translate(0,988.3622)"
           id="path3960"
           inkscape:connector-curvature="0" />
        <path
           inkscape:connector-curvature="0"
           id="path3969"
           d="m 23.615094,1048.4749 -15.8539811,-11.2397 20.3498861,1.6564 z"
           style="fill:url(#linearGradient11023);fill-opacity:1;stroke:none"
           sodipodi:nodetypes="cccc" />
        <path
           inkscape:connector-curvature="0"
           id="path3979"
           d="m 23.615094,1048.4749 -15.8539811,-11.2397 20.3498861,1.6564"
           style="fill:none;stroke:#550000;stroke-width:2;stroke-linecap:butt;stroke-linejoin:miter;stroke-miterlimit:4;stroke-opacity:1;stroke-dasharray:none" />
        <path
           sodipodi:nodetypes="cccc"
           style="fill:url(#linearGradient11031);fill-opacity:1;stroke:none"
           d="m 30.376616,1029.1696 -10.428312,-18.3538 20.186266,11.4731 z"
           id="path3987"
           inkscape:connector-curvature="0" />
        <path
           style="fill:none;stroke:#550000;stroke-width:2;stroke-linecap:butt;stroke-linejoin:miter;stroke-miterlimit:4;stroke-opacity:1;stroke-dasharray:none"
           d="m 30.376616,1029.1696 -10.428312,-18.3538 20.186266,11.4731"
           id="path3989"
           inkscape:connector-curvature="0" />
        <path
           inkscape:connector-curvature="0"
           id="path3995"
           d="m 48.603143,1013.1708 -2.39171,-19.28633 12.499978,16.14353 z"
           style="fill:url(#linearGradient11039);fill-opacity:1;stroke:none"
           sodipodi:nodetypes="cccc" />
        <path
           inkscape:connector-curvature="0"
           id="path3997"
           d="m 48.603143,1013.1708 -2.39171,-19.28633 12.499978,16.14353"
           style="fill:none;stroke:#550000;stroke-width:2;stroke-linecap:butt;stroke-linejoin:miter;stroke-miterlimit:4;stroke-opacity:1;stroke-dasharray:none" />
      </g>
      <rect
         ry="0"
         y="949.50995"
         x="3.9853823"
         height="98.866837"
         width="98.866837"
         id="rect3244"
         style="fill:none;stroke:#000000;stroke-width:7.971;stroke-linecap:butt;stroke-linejoin:miter;stroke-miterlimit:4;stroke-opacity:1;stroke-dasharray:none;stroke-dashoffset:0" />
    </g>
    <g
       id="g4768"
       transform="matrix(1.5941531,0,0,1.5941531,-119.68201,-946.79959)">
      <rect
         ry="0"
         y="1189.5404"
         x="139.23254"
         height="62.01841"
         width="62.01841"
         id="rect4646"
         style="fill:#ffb380;fill-opacity:1;stroke:#000000;stroke-width:5;stroke-linecap:butt;stroke-linejoin:miter;stroke-miterlimit:4;stroke-opacity:1;stroke-dasharray:none;stroke-dashoffset:0" />
      <g
         transform="translate(136.17863,1188.4061)"
         id="g4325">
        <g
           id="layer3"
           inkscape:label="Under Spikes" />
        <g
           inkscape:label="Layer 1"
           id="layer1-0"
           transform="translate(0,-988.3622)"
           style="display:inline" />
        <g
           id="layer2"
           inkscape:label="Over Spikes">
          <path
             inkscape:connector-curvature="0"
             style="fill:#803300;fill-opacity:1;stroke:#000000;stroke-width:2;stroke-linecap:butt;stroke-linejoin:miter;stroke-miterlimit:4;stroke-opacity:1;stroke-dasharray:none"
             d="m 45.310095,0.173223 -25.25,64 -8.96875,0 26,-64 8.21875,0 z"
             id="path4218" />
          <path
             style="fill:#ff6600;fill-opacity:1;stroke:#803300;stroke-width:2;stroke-linecap:butt;stroke-linejoin:miter;stroke-miterlimit:4;stroke-opacity:1;stroke-dasharray:none"
             d="m 27.681778,20.40493 -8.375,2.34375 -0.625,4.4375 7.46875,-0.59375 -9.419014,1.444542 -0.25,4.53125 8.1875,-0.5 -9.794014,0.963028 0.8125,5.625 2.46875,3.375 L 20,38.1875 25.15625,39.257042 30.3125,43.3125 c 8.560669,6.125904 15.508286,9.88616 25.75,10.5 4.168492,0.24984 6.357463,-1.213647 7.9375,-2.40625 L 64,26.9375 C 61.078175,28.812906 58.619638,35.423903 56.349472,41.40625 51.397206,38.059628 49.561741,37.811981 38.3125,34.485916 L 36.09375,28.4375 z"
             id="path4222"
             inkscape:connector-curvature="0"
             sodipodi:nodetypes="cccccccccccccscccccc"
             inkscape:export-xdpi="180"
             inkscape:export-ydpi="180" />
        </g>
      </g>
      <rect
         style="fill:none;stroke:#000000;stroke-width:5;stroke-linecap:butt;stroke-linejoin:miter;stroke-miterlimit:4;stroke-opacity:1;stroke-dasharray:none;stroke-dashoffset:0"
         id="rect4644"
         width="62.01841"
         height="62.01841"
         x="139.23254"
         y="1189.5404"
         ry="0" />
    </g>
    <g
       id="g4686"
       transform="matrix(1.5941531,0,0,1.5941531,-161.67688,-962.74113)">
      <rect
         style="fill:#b3ff80;fill-opacity:1;stroke:#000000;stroke-width:5;stroke-linecap:butt;stroke-linejoin:miter;stroke-miterlimit:4;stroke-opacity:1;stroke-dasharray:none;stroke-dashoffset:0"
         id="rect4650"
         width="62.01841"
         height="62.01841"
         x="227.23254"
         y="1199.5404"
         ry="0" />
      <g
         inkscape:label="Layer 1"
         id="layer1-9"
         transform="translate(223.98159,208.68748)">
        <path
           inkscape:connector-curvature="0"
           style="fill:#15e000;fill-opacity:1;stroke:#085200;stroke-width:2;stroke-linecap:round;stroke-linejoin:miter;stroke-miterlimit:4;stroke-opacity:1;stroke-dasharray:none"
           d="M 48.09375,52.71875 C 41.027179,52.71875 35.168886,57.573956 33.9375,64 l 28.28125,0 C 60.987364,57.573956 55.160321,52.71875 48.09375,52.71875 z"
           transform="translate(0,988.36218)"
           id="path3789" />
        <path
           inkscape:connector-curvature="0"
           style="fill:#15e000;fill-opacity:1;stroke:#085200;stroke-width:2;stroke-linecap:round;stroke-linejoin:miter;stroke-miterlimit:4;stroke-opacity:1;stroke-dasharray:none"
           d="m 36.0625,43.90625 c -7.960639,0 -14.40625,6.189479 -14.40625,13.8125 0,2.259414 0.55744,4.398753 1.5625,6.28125 L 48.875,64 c 1.006103,-1.883263 1.59375,-4.020584 1.59375,-6.28125 0,-7.623021 -6.445611,-13.8125 -14.40625,-13.8125 z"
           transform="translate(0,988.36218)"
           id="path3757" />
        <path
           sodipodi:type="arc"
           style="fill:#15e000;fill-opacity:1;stroke:#085200;stroke-width:2.12407017;stroke-linecap:round;stroke-linejoin:miter;stroke-miterlimit:4;stroke-opacity:1;stroke-dasharray:none"
           id="path3759"
           sodipodi:cx="31.441418"
           sodipodi:cy="49.782005"
           sodipodi:rx="13.293246"
           sodipodi:ry="12.715279"
           d="m 44.734664,49.782005 c 0,7.022455 -5.951589,12.715279 -13.293246,12.715279 -7.341657,0 -13.293247,-5.692824 -13.293247,-12.715279 0,-7.022454 5.95159,-12.715278 13.293247,-12.715278 7.341657,0 13.293246,5.692824 13.293246,12.715278 z"
           transform="matrix(0.97219616,0,0,0.91194438,-0.028979,990.74577)" />
        <path
           sodipodi:type="arc"
           style="fill:#15e000;fill-opacity:1;stroke:#085200;stroke-width:2.13968062;stroke-linecap:round;stroke-linejoin:miter;stroke-miterlimit:4;stroke-opacity:1;stroke-dasharray:none"
           id="path3761"
           sodipodi:cx="28.320395"
           sodipodi:cy="39.783173"
           sodipodi:rx="11.096971"
           sodipodi:ry="10.92358"
           d="m 39.417365,39.783173 c 0,6.032926 -4.968283,10.92358 -11.09697,10.92358 -6.128688,0 -11.096971,-4.890654 -11.096971,-10.92358 0,-6.032927 4.968283,-10.923581 11.096971,-10.923581 6.128687,0 11.09697,4.890654 11.09697,10.923581 z"
           transform="matrix(0.93523306,0,0,0.93420501,2.2038909,989.2687)" />
        <path
           sodipodi:type="arc"
           style="fill:#15e000;fill-opacity:1;stroke:#085200;stroke-width:2.32546067;stroke-linecap:round;stroke-linejoin:miter;stroke-miterlimit:4;stroke-opacity:1;stroke-dasharray:none"
           id="path3763"
           sodipodi:cx="34.273457"
           sodipodi:cy="29.726543"
           sodipodi:rx="9.3052721"
           sodipodi:ry="8.6117115"
           d="m 43.578729,29.726543 c 0,4.756117 -4.166113,8.611712 -9.305272,8.611712 -5.13916,0 -9.305273,-3.855595 -9.305273,-8.611712 0,-4.756117 4.166113,-8.611711 9.305273,-8.611711 5.139159,0 9.305272,3.855594 9.305272,8.611711 z"
           transform="matrix(0.83360717,0,0,0.8873205,1.7377688,992.71718)" />
        <path
           style="fill:url(#linearGradient4697);fill-opacity:1;stroke:url(#linearGradient4699);stroke-width:2;stroke-linecap:butt;stroke-linejoin:miter;stroke-miterlimit:4;stroke-opacity:1;stroke-dasharray:none"
           d="m 30.024868,1013.1802 c 0,0 1.420517,-3.4789 4.039494,-6.0276 2.618977,-2.5487 7.561532,-4.1132 7.561532,-4.1132 0,0 -3.646954,4.9878 -4.91994,7.327 -1.27298,2.3391 -2.734351,5.6829 -2.734351,5.6829 0,0 -0.836366,0.7912 -2.644309,-0.6375 -1.807917,-1.4288 -1.302426,-2.2316 -1.302426,-2.2316 z"
           id="path3765"
           inkscape:connector-curvature="0"
           sodipodi:nodetypes="czczczc" />
      </g>
      <rect
         ry="0"
         y="1199.5404"
         x="227.23254"
         height="62.01841"
         width="62.01841"
         id="rect4648"
         style="fill:none;stroke:#000000;stroke-width:5;stroke-linecap:butt;stroke-linejoin:miter;stroke-miterlimit:4;stroke-opacity:1;stroke-dasharray:none;stroke-dashoffset:0" />
    </g>
    <g
       id="g4787"
       transform="matrix(1.5941531,0,0,1.5941531,-190.91854,-908.53993)">
      <rect
         ry="0"
         y="1165.5404"
         x="307.23254"
         height="62.01841"
         width="62.01841"
         id="rect4654"
         style="fill:#aaeeff;fill-opacity:1;stroke:#000000;stroke-width:5;stroke-linecap:butt;stroke-linejoin:miter;stroke-miterlimit:4;stroke-opacity:1;stroke-dasharray:none;stroke-dashoffset:0" />
      <g
         inkscape:label="Layer 1"
         id="layer1-02"
         transform="translate(306.28697,176.51917)">
        <path
           style="fill:#ffe64d;fill-opacity:1;stroke:#00309a;stroke-width:2;stroke-linecap:butt;stroke-linejoin:miter;stroke-miterlimit:4;stroke-opacity:1;stroke-dasharray:none"
           d="m 64.339779,1007.2059 0,45.1563 -39.84375,0 c -6.012599,-2.9841 -9.23786,-8.4018 -10.25,-17.125 0,0 12.339663,5.079 25.358902,3.5904 11.327138,-1.2951 19.347411,-10.3374 19.347411,-10.3374 0,0 -8.687016,-12.1993 -20.050063,-13.128 -12.556865,-1.0264 -24.90625,3.2187 -24.90625,3.2187 1.040341,-15.984 16.03063,-20.65783 27.375,-20.46872 8.329425,0.3863 17.392948,4.61542 22.96875,9.09372 z"
           id="path3912"
           inkscape:connector-curvature="0"
           sodipodi:nodetypes="ccccsccccc" />
        <path
           inkscape:connector-curvature="0"
           style="fill:#0f7fff;fill-opacity:1;stroke:#00309a;stroke-width:2;stroke-linecap:butt;stroke-linejoin:miter;stroke-miterlimit:4;stroke-opacity:1;stroke-dasharray:none"
           d="m 64.339779,988.36218 0,18.84372 c -2.00965,-1.6565 -4.260904,-3.1676 -6.625,-4.4687 0.475364,-3.30571 0.695344,-4.83216 2.483488,-8.98883 0.774027,-1.79928 2.107872,-4.1351 3.235262,-5.38619 z"
           id="path3919"
           sodipodi:nodetypes="cccscc" />
        <path
           style="fill:none;stroke:#00309a;stroke-width:2;stroke-linecap:butt;stroke-linejoin:miter;stroke-miterlimit:4;stroke-opacity:1;stroke-dasharray:none"
           d="m 17.40884,1023.5794 -13.062059,-3.121"
           id="path3946"
           inkscape:connector-curvature="0" />
        <path
           style="fill:none;stroke:#00309a;stroke-width:2;stroke-linecap:butt;stroke-linejoin:miter;stroke-miterlimit:4;stroke-opacity:1;stroke-dasharray:none"
           d="M 16.021719,1027.7408 4.577968,1026.7004"
           id="path3948"
           inkscape:connector-curvature="0" />
        <path
           style="fill:none;stroke:#00309a;stroke-width:2;stroke-linecap:butt;stroke-linejoin:miter;stroke-miterlimit:4;stroke-opacity:1;stroke-dasharray:none"
           d="M 16.715279,1031.3242 4,1032.7113"
           id="path3950"
           inkscape:connector-curvature="0" />
        <path
           inkscape:connector-curvature="0"
           style="fill:#01309a;fill-opacity:1;stroke:#00309a;stroke-width:2;stroke-linecap:butt;stroke-linejoin:miter;stroke-miterlimit:4;stroke-opacity:1;stroke-dasharray:none"
           d="m 35.027279,1020.7997 c 1.199165,0 2.4322,0.3419 3.3125,1.1562 0.784643,0.7258 1.228268,1.7575 1.625,2.75 0.396732,0.9925 0.787022,2.0162 1.5,2.8125 0.672845,0.7515 1.621017,1.2464 2.625,1.3438 1.003983,0.097 2.026156,-0.2062 2.78125,-0.875 0.515739,-0.4568 0.912904,-1.0741 1.28125,-1.6563 0.368347,-0.5822 0.744118,-1.1623 1.28125,-1.5937 0.778141,-0.6251 1.787001,-0.8501 2.78125,-0.9375 0.808146,-0.071 1.631458,-0.077 2.4375,-0.1563 2.70077,2.622 4.3125,4.8438 4.3125,4.8438 0,0 -0.943847,1.0241 -2.5,2.375 -0.272551,-0.1529 -0.525238,-0.3204 -0.78125,-0.5 -0.411082,-0.2885 -0.813517,-0.5954 -1.25,-0.8438 -0.436485,-0.2483 -0.938146,-0.4465 -1.4375,-0.5 -0.653364,-0.07 -1.298545,0.091 -1.875,0.4063 -0.576454,0.3154 -1.089736,0.7633 -1.53125,1.25 -0.883027,0.9733 -1.571066,2.1434 -2.59375,2.9687 -0.962573,0.7769 -2.201331,1.2314 -3.4375,1.1875 -1.236168,-0.044 -2.439251,-0.597 -3.25,-1.5312 -0.607935,-0.7005 -0.97363,-1.6013 -1.375,-2.4375 -0.401369,-0.8362 -0.898632,-1.6524 -1.65625,-2.1875 -0.781304,-0.5518 -1.769481,-0.7113 -2.71875,-0.5938 -0.94927,0.1175 -1.843102,0.4882 -2.6875,0.9375 -0.65478,0.3485 -1.305518,0.7396 -2,1 -0.694482,0.2605 -1.48128,0.383 -2.1875,0.1563 -0.405231,-0.1301 -0.770621,-0.3778 -1.0625,-0.6875 -0.291879,-0.3098 -0.491093,-0.6898 -0.625,-1.0938 -0.267814,-0.8079 -0.19397,-1.6989 0.09375,-2.5 0.407227,-1.1338 1.214649,-2.1018 2.1875,-2.8125 0.972852,-0.7106 2.082196,-1.1941 3.21875,-1.5937 1.131285,-0.3978 2.332085,-0.6917 3.53125,-0.6875 z"
           id="path3956" />
      </g>
      <rect
         style="fill:none;stroke:#000000;stroke-width:5;stroke-linecap:butt;stroke-linejoin:miter;stroke-miterlimit:4;stroke-opacity:1;stroke-dasharray:none;stroke-dashoffset:0"
         id="rect4652"
         width="62.01841"
         height="62.01841"
         x="307.23254"
         y="1165.5404"
         ry="0" />
    </g>
    <g
       id="g4712"
       transform="matrix(1.5941531,0,0,1.5941531,-254.5199,-903.5866)">
      <rect
         style="fill:#ddafe9;fill-opacity:1;stroke:#000000;stroke-width:5;stroke-linecap:butt;stroke-linejoin:miter;stroke-miterlimit:4;stroke-opacity:1;stroke-dasharray:none;stroke-dashoffset:0"
         id="rect4658"
         width="62.01841"
         height="62.01841"
         x="408.78613"
         y="1162.4332"
         ry="0" />
      <g
         transform="translate(406.63247,1161.3515)"
         id="layer2-2"
         inkscape:label="Legs"
         style="display:inline">
        <path
           inkscape:connector-curvature="0"
           style="fill:#ffff00;fill-opacity:1;stroke:#3b003c;stroke-width:2;stroke-linecap:round;stroke-linejoin:miter;stroke-miterlimit:4;stroke-opacity:1;stroke-dasharray:none"
           d="m 52.34375,13.8125 c -9.843872,0 -18.439259,4.058625 -22.875,10 -0.896866,-3.286314 -2.326427,-5.4375 -3.9375,-5.4375 -1.194796,0 -2.272481,1.21573 -3.125,3.15625 C 21.872353,21.047999 21.292769,20.75 20.6875,20.75 c -1.360003,0 -2.590838,1.381048 -3.46875,3.53125 -0.458987,-0.370955 -0.884585,-0.59375 -1.40625,-0.59375 -1.17003,0 -2.252766,1.014672 -3,2.65625 -0.258717,-0.06849 -0.508739,-0.125 -0.78125,-0.125 -2.4162738,0 -4.375,2.807833 -4.375,6.28125 0,3.473401 1.9587262,6.28125 4.375,6.28125 0.348235,0 0.675275,-0.04577 1,-0.15625 0.72501,1.350661 1.733356,2.15625 2.78125,2.15625 0.521665,0 0.947263,-0.191543 1.40625,-0.5625 0.877912,2.1502 2.108747,3.5 3.46875,3.5 0.698701,0 1.33788,-0.334279 1.9375,-0.96875 0.812759,1.62432 1.823366,2.59375 2.90625,2.59375 1.32946,0 2.552712,-1.43832 3.4375,-3.78125 4.256314,6.351976 13.120414,10.75 23.375,10.75 4.196399,0 8.147992,-0.734791 11.65625,-2.03125 L 64,15.875 C 60.491053,14.568866 56.541261,13.8125 52.34375,13.8125 z"
           id="path4707" />
        <path
           inkscape:connector-curvature="0"
           style="fill:#800080;fill-opacity:1;stroke:#3b003c;stroke-width:2;stroke-miterlimit:4;stroke-opacity:1;stroke-dasharray:none;display:inline"
           d="M 64,33.71875 C 39.60082,34.396319 28.730175,34.054219 14.9375,50.25 11.516972,54.266477 17.143864,59.474821 27.15625,64 L 64,64 64,33.71875 z"
           id="path2993" />
        <use
           x="0"
           y="0"
           xlink:href="#path2993"
           id="use2996"
           transform="matrix(1,0,0,-1,1.1166481e-7,64.400398)"
           width="64"
           height="64"
           style="stroke-width:2;stroke-miterlimit:4;stroke-dasharray:none;display:inline" />
        <path
           style="fill:#ffff00;stroke:#3b003c;stroke-width:2;stroke-miterlimit:4;stroke-opacity:1;stroke-dasharray:none;display:inline"
           d="m 45.71875,0.36363636 0.59375,7.59375004 -8.90625,6.3749996 11.0625,2.46875 4,9.5625 6.03125,-8.6875 5.5,-0.21875 0,-6.53125 -1.4375,-1.5312496 1.4375,-4.65625 0,-4.37500004 -0.625,0 -8.34375,3.03125004 -5.125,-3.03125004 -4.1875,0 z"
           id="path3049"
           inkscape:connector-curvature="0" />
        <path
           inkscape:connector-curvature="0"
           style="fill:#ffff00;stroke:#3b003c;stroke-width:2;stroke-miterlimit:4;stroke-opacity:1;stroke-dasharray:none;display:inline"
           d="M 53.84375,37.71875 49.8125,47.28125 38.75,49.75 47.6875,56.125 47.0625,64 50.78125,64 56.375,60.6875 64,63.4375 64,55 63.90625,54.6875 64,54.59375 64,46.5625 59.875,46.40625 53.84375,37.71875 z"
           id="path3049-1" />
      </g>
      <rect
         ry="0"
         y="1162.4332"
         x="408.78613"
         height="62.01841"
         width="62.01841"
         id="rect4656"
         style="fill:none;stroke:#000000;stroke-width:5;stroke-linecap:butt;stroke-linejoin:miter;stroke-miterlimit:4;stroke-opacity:1;stroke-dasharray:none;stroke-dashoffset:0" />
    </g>
    <rect
       style="fill:#ffffff;fill-opacity:1;stroke:#000000;stroke-width:8.2275486;stroke-linecap:butt;stroke-linejoin:miter;stroke-miterlimit:4;stroke-opacity:1;stroke-dasharray:none;stroke-dashoffset:0"
       id="rect4828"
       width="492.00302"
       height="98.054176"
       x="3.9981937"
       y="850.94153" />
    <text
       xml:space="preserve"
       style="font-size:75.54419708px;font-style:normal;font-weight:normal;line-height:125%;letter-spacing:0px;word-spacing:0px;fill:#000000;fill-opacity:1;stroke:none;font-family:Sans"
       x="32.783646"
       y="992.13489"
       id="text4830"
       sodipodi:linespacing="125%"
       transform="scale(1.0722758,0.93259588)"><tspan
         sodipodi:role="line"
         id="tspan4832"
         x="32.783646"
         y="992.13489"
         style="font-size:75.54419708px;font-style:normal;font-variant:normal;font-weight:bold;font-stretch:normal;font-family:Sans;-inkscape-font-specification:Sans Bold">Summoner</tspan></text>
  </g>
</svg>
