<?xml version="1.0" encoding="UTF-8" standalone="no"?>
<!-- Created with Inkscape (http://www.inkscape.org/) -->

<svg
   xmlns:dc="http://purl.org/dc/elements/1.1/"
   xmlns:cc="http://creativecommons.org/ns#"
   xmlns:rdf="http://www.w3.org/1999/02/22-rdf-syntax-ns#"
   xmlns:svg="http://www.w3.org/2000/svg"
   xmlns="http://www.w3.org/2000/svg"
   xmlns:sodipodi="http://sodipodi.sourceforge.net/DTD/sodipodi-0.dtd"
   xmlns:inkscape="http://www.inkscape.org/namespaces/inkscape"
   width="64"
   height="64"
   id="svg2"
   version="1.1"
   inkscape:version="0.48.5 r10040"
   sodipodi:docname="SummonBird.svg"
   inkscape:export-filename="/home/cg/programming/orders/res/SummonBird.png"
   inkscape:export-xdpi="180"
   inkscape:export-ydpi="180">
  <defs
     id="defs4">
    <clipPath
       id="clipPath3896"
       clipPathUnits="userSpaceOnUse">
      <g
         transform="translate(0.46013035,0.4532874)"
         id="g3898"
         inkscape:label="Layer 1">
        <path
           sodipodi:nodetypes="ccccccccccc"
           inkscape:connector-curvature="0"
           id="path3900"
           d="M 31.53987,1.1577492 40.623998,20.793325 61.389771,20.844973 47.002231,38.26814 53.988122,61.935636 31.539869,48.596033 9.091615,61.935635 16.077508,38.26814 1.6899683,20.844971 22.45574,20.793325 z"
           inkscape:transform-center-y="-2.9971004"
           style="fill:#ffffff;fill-opacity:1;stroke:#000000;stroke-width:2;stroke-linecap:round;stroke-linejoin:round;stroke-miterlimit:4;stroke-opacity:1"
           transform="translate(0,988.3622)" />
      </g>
    </clipPath>
    <linearGradient
       id="linearGradient3797">
      <stop
         id="stop3799"
         offset="0"
         style="stop-color:#ffff00;stop-opacity:1;" />
      <stop
         id="stop3801"
         offset="1"
         style="stop-color:#bbff00;stop-opacity:1;" />
    </linearGradient>
    <linearGradient
       id="linearGradient3805">
      <stop
         id="stop3807"
         offset="0"
         style="stop-color:#262500;stop-opacity:1;" />
      <stop
         id="stop3809"
         offset="1"
         style="stop-color:#699f00;stop-opacity:1;" />
    </linearGradient>
    <inkscape:path-effect
       is_visible="true"
       id="path-effect3954"
       effect="spiro" />
    <inkscape:path-effect
       is_visible="true"
       id="path-effect3958"
       effect="spiro" />
    <clipPath
       clipPathUnits="userSpaceOnUse"
       id="clipPath12441">
      <path
         style="fill:#ffffff;fill-opacity:1;stroke:#000000;stroke-width:2.76711774;stroke-linecap:round;stroke-linejoin:round;stroke-miterlimit:4;stroke-opacity:1"
         inkscape:transform-center-y="-2.9971004"
         d="m 32.350299,972.11318 12.568426,27.16697 28.73067,0.0719 -19.906009,24.10595 9.665392,32.7454 -31.058479,-18.4562 -31.0584824,18.4562 9.6653934,-32.7454 -19.9060074,-24.10595 28.7306674,-0.0719 z"
         id="path12443"
         inkscape:connector-curvature="0"
         sodipodi:nodetypes="ccccccccccc" />
    </clipPath>
    <clipPath
       clipPathUnits="userSpaceOnUse"
       id="clipPath9069">
      <path
         style="fill:#aaeeff;fill-opacity:0;stroke:#00309a;stroke-width:2;stroke-linecap:round;stroke-linejoin:round;stroke-miterlimit:4;stroke-opacity:1"
         inkscape:transform-center-y="-2.9971004"
         d="m 32,989.97313 9.084128,19.63557 20.765773,0.052 -14.38754,17.4231 6.985891,23.6675 -22.448253,-13.3396 -22.448254,13.3396 6.985893,-23.6675 -14.3875393,-17.4231 20.7657713,-0.052 z"
         id="path9071"
         inkscape:connector-curvature="0"
         sodipodi:nodetypes="ccccccccccc" />
    </clipPath>
    <clipPath
       clipPathUnits="userSpaceOnUse"
       id="clipPath19226">
      <path
         style="fill:#aaeeff;fill-opacity:0;stroke:#00309a;stroke-width:2;stroke-linecap:round;stroke-linejoin:round;stroke-miterlimit:4;stroke-opacity:1"
         inkscape:transform-center-y="-2.9971004"
         d="m 32,989.97313 -9.084128,19.63557 -20.7657733,0.052 14.3875403,17.4231 -6.9858913,23.6675 22.4482533,-13.3396 22.448254,13.3396 -6.985893,-23.6675 14.387539,-17.4231 -20.765771,-0.052 z"
         id="path19228"
         inkscape:connector-curvature="0"
         sodipodi:nodetypes="ccccccccccc" />
    </clipPath>
  </defs>
  <sodipodi:namedview
     id="base"
     pagecolor="#ffffff"
     bordercolor="#666666"
     borderopacity="1.0"
     inkscape:pageopacity="0.0"
     inkscape:pageshadow="2"
     inkscape:zoom="7.1815532"
     inkscape:cx="38.304651"
     inkscape:cy="32.819064"
     inkscape:document-units="px"
     inkscape:current-layer="layer1"
     showgrid="false"
     width="64px"
     inkscape:window-width="1062"
     inkscape:window-height="994"
     inkscape:window-x="-1"
     inkscape:window-y="17"
     inkscape:window-maximized="0" />
  <metadata
     id="metadata7">
    <rdf:RDF>
      <cc:Work
         rdf:about="">
        <dc:format>image/svg+xml</dc:format>
        <dc:type
           rdf:resource="http://purl.org/dc/dcmitype/StillImage" />
        <dc:title />
      </cc:Work>
    </rdf:RDF>
  </metadata>
  <g
     inkscape:label="Layer 1"
     inkscape:groupmode="layer"
     id="layer1"
     transform="translate(0,-988.3622)">
    <path
       style="fill:#aaeeff;fill-opacity:1;stroke:#00309a;stroke-width:2;stroke-linecap:round;stroke-linejoin:round;stroke-miterlimit:4;stroke-opacity:1"
       inkscape:transform-center-y="-2.9971004"
       d="m 32,989.9731 -9.084128,19.6356 -20.7657733,0.052 14.3875403,17.4231 -6.985891,23.6675 22.448253,-13.3396 22.448253,13.3396 -6.985892,-23.6675 14.387539,-17.4231 -20.765771,-0.052 z"
       id="path3790"
       inkscape:connector-curvature="0"
       sodipodi:nodetypes="ccccccccccc" />
    <g
       id="g19215"
       clip-path="url(#clipPath19226)">
      <path
         sodipodi:nodetypes="czccsccccc"
         inkscape:connector-curvature="0"
         id="path3912"
         d="m 57.642268,1016.7903 c 0,0 4.142674,20.8931 -2.799922,27.6351 -6.942596,6.7421 -26.656413,1.9476 -26.656413,1.9476 -4.345749,-2.1568 -8.278885,-4.4706 -9.010434,-10.7755 0,0 8.918784,3.671 18.328748,2.5951 8.186958,-0.9361 13.8236,-8.593 13.8236,-8.593 0,0 -6.118547,-7.696 -14.331458,-8.3672 -9.075772,-0.7419 -18.001583,2.3264 -18.001583,2.3264 0.751931,-11.5528 11.586518,-14.9309 19.78593,-14.7943 6.02029,0.2793 14.831489,4.789 18.861532,8.0258 z"
         style="fill:#ffe64d;fill-opacity:1;stroke:#00309a;stroke-width:2;stroke-linecap:butt;stroke-linejoin:miter;stroke-miterlimit:4;stroke-opacity:1;stroke-dasharray:none"
         clip-path="none" />
      <path
         id="path3919"
         d="m 64.746139,1000.9102 -5.005,22.0153 c -1.452522,-1.1973 -7.438863,-9.8777 -9.14757,-10.8181 0.43494,-2.6329 1.036681,-5.6912 1.694001,-7.0019 0.634633,-1.2655 1.624513,-2.6452 2.439361,-3.5495 z"
         style="fill:#0f7fff;fill-opacity:1;stroke:#00309a;stroke-width:2;stroke-linecap:butt;stroke-linejoin:miter;stroke-miterlimit:4;stroke-opacity:1;stroke-dasharray:none"
         inkscape:connector-curvature="0"
         sodipodi:nodetypes="cccscc" />
      <path
         id="path3956"
         d="m 34.195641,1025.1625 c 0.866725,0 1.75793,0.2471 2.394188,0.8357 0.567119,0.5246 0.887759,1.2702 1.174507,1.9876 0.286747,0.7174 0.568839,1.4572 1.08416,2.0328 0.486315,0.5432 1.171629,0.9008 1.897281,0.9712 0.725653,0.071 1.464453,-0.149 2.010215,-0.6324 0.372762,-0.3302 0.659823,-0.7763 0.926054,-1.1971 0.266231,-0.4208 0.537828,-0.8401 0.926053,-1.1519 0.56242,-0.4518 1.291598,-0.6144 2.010215,-0.6776 0.584106,-0.051 1.179175,-0.055 1.761761,-0.1129 1.952045,1.8951 3.116961,3.5009 3.116961,3.5009 0,0 -0.682187,0.7402 -1.806934,1.7166 -0.196993,-0.1105 -0.379628,-0.2315 -0.564667,-0.3614 -0.297119,-0.2085 -0.587989,-0.4303 -0.903467,-0.6098 -0.31548,-0.1796 -0.678067,-0.3228 -1.038987,-0.3614 -0.472235,-0.051 -0.938554,0.066 -1.355201,0.2936 -0.416646,0.228 -0.787633,0.5517 -1.106747,0.9035 -0.638229,0.7035 -1.135525,1.5491 -1.874695,2.1457 -0.695722,0.5615 -1.591064,0.89 -2.484534,0.8583 -0.89347,-0.032 -1.763027,-0.4315 -2.349015,-1.1068 -0.439399,-0.5063 -0.703714,-1.1574 -0.993814,-1.7617 -0.290099,-0.6044 -0.649507,-1.1943 -1.197094,-1.5811 -0.564706,-0.3988 -1.278934,-0.5141 -1.965041,-0.4291 -0.686107,0.085 -1.332145,0.3528 -1.942454,0.6776 -0.473258,0.2518 -0.943594,0.5345 -1.445547,0.7227 -0.501954,0.1883 -1.070631,0.2768 -1.581068,0.113 -0.29289,-0.094 -0.556984,-0.2731 -0.767947,-0.4969 -0.210962,-0.2239 -0.354949,-0.4986 -0.451733,-0.7906 -0.193569,-0.5839 -0.140197,-1.2279 0.06776,-1.8069 0.294333,-0.8195 0.877916,-1.5192 1.581067,-2.0328 0.703152,-0.5136 1.504957,-0.8631 2.326428,-1.1519 0.817663,-0.2875 1.68557,-0.5 2.552295,-0.4969 z"
         style="fill:#01309a;fill-opacity:1;stroke:#00309a;stroke-width:2;stroke-linecap:butt;stroke-linejoin:miter;stroke-miterlimit:4;stroke-opacity:1;stroke-dasharray:none"
         inkscape:connector-curvature="0" />
    </g>
    <path
       sodipodi:nodetypes="ccccccccccc"
       inkscape:connector-curvature="0"
       id="path13102"
       d="m 32,989.97313 -9.084128,19.63557 -20.7657733,0.052 14.3875403,17.4231 -6.9858913,23.6675 22.4482533,-13.3396 22.448254,13.3396 -6.985893,-23.6675 14.387539,-17.4231 -20.765771,-0.052 z"
       inkscape:transform-center-y="-2.9971004"
       style="fill:#aaeeff;fill-opacity:0;stroke:#00309a;stroke-width:2;stroke-linecap:round;stroke-linejoin:round;stroke-miterlimit:4;stroke-opacity:1" />
  </g>
</svg>
