<?xml version="1.0" encoding="UTF-8" standalone="no"?>
<!-- Created with Inkscape (http://www.inkscape.org/) -->

<svg
   xmlns:dc="http://purl.org/dc/elements/1.1/"
   xmlns:cc="http://creativecommons.org/ns#"
   xmlns:rdf="http://www.w3.org/1999/02/22-rdf-syntax-ns#"
   xmlns:svg="http://www.w3.org/2000/svg"
   xmlns="http://www.w3.org/2000/svg"
   xmlns:xlink="http://www.w3.org/1999/xlink"
   xmlns:sodipodi="http://sodipodi.sourceforge.net/DTD/sodipodi-0.dtd"
   xmlns:inkscape="http://www.inkscape.org/namespaces/inkscape"
   width="128"
   height="128"
   id="svg2"
   version="1.1"
   inkscape:version="0.48.5 r10040"
   sodipodi:docname="SummoningCircle.svg"
   inkscape:export-filename="/home/cg/programming/orders/res/SummoningCircle.png"
   inkscape:export-xdpi="90"
   inkscape:export-ydpi="90">
  <defs
     id="defs4">
    <linearGradient
       id="linearGradient3891">
      <stop
         style="stop-color:#ff0000;stop-opacity:1;"
         offset="0"
         id="stop3893" />
      <stop
         style="stop-color:#ff0000;stop-opacity:0;"
         offset="1"
         id="stop3895" />
    </linearGradient>
    <linearGradient
       id="linearGradient3883">
      <stop
         style="stop-color:#ffff00;stop-opacity:0;"
         offset="0"
         id="stop3885" />
      <stop
         id="stop3899"
         offset="0.5"
         style="stop-color:#ffff00;stop-opacity:1;" />
      <stop
         style="stop-color:#ffff00;stop-opacity:0;"
         offset="1"
         id="stop3887" />
    </linearGradient>
    <linearGradient
       id="linearGradient3836">
      <stop
         style="stop-color:#000000;stop-opacity:0;"
         offset="0"
         id="stop3838" />
      <stop
         id="stop3850"
         offset="0.58432174"
         style="stop-color:#0000ff;stop-opacity:0.49803922;" />
      <stop
         id="stop3846"
         offset="0.70807022"
         style="stop-color:#00ffff;stop-opacity:0.49635038;" />
      <stop
         style="stop-color:#ffff00;stop-opacity:1;"
         offset="0.78050482"
         id="stop3852" />
      <stop
         id="stop3844"
         offset="0.85293937"
         style="stop-color:#00ffff;stop-opacity:0.49803922;" />
      <stop
         style="stop-color:#0000ff;stop-opacity:0.49803922;"
         offset="0.96026176"
         id="stop3848" />
      <stop
         style="stop-color:#00ffff;stop-opacity:0;"
         offset="1"
         id="stop3840" />
    </linearGradient>
    <linearGradient
       id="linearGradient3790">
      <stop
         id="stop3792"
         offset="0"
         style="stop-color:#0000ff;stop-opacity:0" />
      <stop
         style="stop-color:#008fff;stop-opacity:0;"
         offset="0.67245954"
         id="stop3794" />
      <stop
         id="stop3796"
         offset="0.78204489"
         style="stop-color:#00c1ff;stop-opacity:1;" />
      <stop
         id="stop3798"
         offset="1"
         style="stop-color:#00ffff;stop-opacity:0;" />
    </linearGradient>
    <linearGradient
       id="linearGradient3760">
      <stop
         style="stop-color:#0000ff;stop-opacity:0;"
         offset="0"
         id="stop3762" />
      <stop
         id="stop3768"
         offset="0.79027987"
         style="stop-color:#008fff;stop-opacity:0;" />
      <stop
         style="stop-color:#00c1ff;stop-opacity:1;"
         offset="0.91789395"
         id="stop3770" />
      <stop
         style="stop-color:#00ffff;stop-opacity:0;"
         offset="1"
         id="stop3764" />
    </linearGradient>
    <radialGradient
       inkscape:collect="always"
       xlink:href="#linearGradient3836"
       id="radialGradient3842"
       cx="64.001564"
       cy="988.57324"
       fx="64.001564"
       fy="988.57324"
       r="54.976882"
       gradientTransform="matrix(1.1641317,0,0,1.1641485,-10.504685,-162.48127)"
       gradientUnits="userSpaceOnUse" />
    <linearGradient
       inkscape:collect="always"
       xlink:href="#linearGradient3883"
       id="linearGradient3889"
       x1="45.180786"
       y1="55.626751"
       x2="47.332638"
       y2="51.899635"
       gradientUnits="userSpaceOnUse" />
    <linearGradient
       inkscape:collect="always"
       xlink:href="#linearGradient3883"
       id="linearGradient3903"
       gradientUnits="userSpaceOnUse"
       x1="45.180786"
       y1="55.626751"
       x2="47.332638"
       y2="51.899635"
       gradientTransform="matrix(-1,0,0,1,127.7249,924.36218)" />
    <linearGradient
       inkscape:collect="always"
       xlink:href="#linearGradient3883"
       id="linearGradient3907"
       gradientUnits="userSpaceOnUse"
       gradientTransform="matrix(0.49994769,-0.86593481,-0.86593481,-0.49994769,87.471561,1075.3566)"
       x1="45.180786"
       y1="55.626751"
       x2="47.332638"
       y2="51.899635" />
  </defs>
  <sodipodi:namedview
     id="base"
     pagecolor="#ffffff"
     bordercolor="#666666"
     borderopacity="1.0"
     inkscape:pageopacity="0.0"
     inkscape:pageshadow="2"
     inkscape:zoom="6.2421875"
     inkscape:cx="57.509763"
     inkscape:cy="64.808477"
     inkscape:document-units="px"
     inkscape:current-layer="layer1"
     showgrid="false"
     inkscape:snap-grids="true"
     inkscape:window-width="1278"
     inkscape:window-height="1004"
     inkscape:window-x="0"
     inkscape:window-y="18"
     inkscape:window-maximized="0" />
  <metadata
     id="metadata7">
    <rdf:RDF>
      <cc:Work
         rdf:about="">
        <dc:format>image/svg+xml</dc:format>
        <dc:type
           rdf:resource="http://purl.org/dc/dcmitype/StillImage" />
        <dc:title></dc:title>
      </cc:Work>
    </rdf:RDF>
  </metadata>
  <g
     inkscape:label="Layer 1"
     inkscape:groupmode="layer"
     id="layer1"
     transform="translate(0,-924.36218)">
    <path
       style="fill:url(#radialGradient3842);fill-opacity:1;stroke:none"
       d="m 63.5625,934.36218 c -0.240538,0.002 -0.478971,0.0262 -0.71875,0.0312 -0.741515,0.0156 -1.484878,0.0173 -2.21875,0.0625 -2.50455,0.15486 -5.011751,0.48805 -7.5,1 -0.220268,0.0451 -0.436968,0.1085 -0.65625,0.15625 -0.176985,0.0387 -0.354464,0.0844 -0.53125,0.125 -0.56049,0.12801 -1.133804,0.2297 -1.6875,0.375 -0.07313,0.0193 -0.145662,0.0429 -0.21875,0.0625 -0.703501,0.18781 -1.40187,0.4098 -2.09375,0.625 -0.04111,0.0128 -0.08391,0.0183 -0.125,0.0312 -0.686424,0.21532 -1.356934,0.44582 -2.03125,0.6875 -0.05327,0.0192 -0.103012,0.0432 -0.15625,0.0625 -0.553375,0.2003 -1.111458,0.40729 -1.65625,0.625 -0.208264,0.0836 -0.417344,0.16366 -0.625,0.25 -0.368317,0.15253 -0.729595,0.30835 -1.09375,0.46875 -0.458061,0.20231 -0.920317,0.4089 -1.375,0.625 -0.356521,0.16926 -0.710329,0.35446 -1.0625,0.53125 -0.419411,0.21071 -0.833886,0.43355 -1.25,0.65625 -0.197011,0.10539 -0.398208,0.20475 -0.59375,0.3125 -0.321113,0.17692 -0.649783,0.34709 -0.96875,0.53125 -0.170421,0.0984 -0.33106,0.21254 -0.5,0.3125 -0.509351,0.30208 -1.001612,0.61933 -1.5,0.9375 -0.20538,0.1306 -0.421954,0.24205 -0.625,0.375 -0.475731,0.31281 -0.941157,0.64147 -1.40625,0.96875 -0.295222,0.20698 -0.585055,0.41299 -0.875,0.625 -0.293625,0.21545 -0.585934,0.43505 -0.875,0.65625 -2.518212,1.92021 -4.844269,4.01091 -6.9375,6.28125 -5.072298,-1.28005 -10.599013,0.87097 -13.34375,5.625 -2.728153,4.72529 -1.8395068,10.52605 1.75,14.28125 -1.027302,3.15568 -1.786861,6.43147 -2.21875,9.8125 -0.03944,0.3039 -0.0907,0.60158 -0.125,0.90625 -0.047,0.42544 -0.08795,0.85289 -0.125,1.28125 -0.04334,0.49047 -0.09504,0.9768 -0.125,1.46875 -0.0209,0.35231 -0.01713,0.7084 -0.03125,1.0625 -0.02447,0.5915 -0.0575,1.18835 -0.0625,1.78125 -10e-4,0.13583 0,0.27019 0,0.40625 0,0.3352 0.02516,0.66626 0.03125,1 0.0043,0.23979 -0.0075,0.47886 0,0.71875 0.01575,0.5028 0.06433,1.00077 0.09375,1.5 0.02645,0.44821 0.05601,0.89556 0.09375,1.34375 0.02457,0.29313 0.03326,0.58322 0.0625,0.875 0.04958,0.49196 0.09294,0.97724 0.15625,1.46875 0.208773,1.63163 0.492622,3.26107 0.84375,4.84377 0.0094,0.042 0.02175,0.083 0.03125,0.125 0.174762,0.7788 0.385716,1.5468 0.59375,2.3125 0.02523,0.092 0.03676,0.1889 0.0625,0.2812 0.220673,0.7951 0.463043,1.5639 0.71875,2.3438 0.08241,0.2507 0.16371,0.4999 0.25,0.75 0.09239,0.2684 0.184758,0.546 0.28125,0.8125 0.190671,0.5251 0.38573,1.0409 0.59375,1.5625 0.6244,1.5693 1.330362,3.1009 2.09375,4.5937 0.0043,0.01 -0.0043,0.023 0,0.031 0.818759,1.5991 1.718801,3.1545 2.6875,4.6562 0.114693,0.1786 0.227269,0.3545 0.34375,0.5313 0.152869,0.231 0.31244,0.459 0.46875,0.6875 0.27453,0.403 0.559974,0.794 0.84375,1.1875 0.422458,0.5828 0.867637,1.1538 1.3125,1.7187 0.118335,0.1511 0.224028,0.3193 0.34375,0.4688 0.52857,0.6568 1.066829,1.3064 1.625,1.9375 0.03449,0.039 0.05916,0.086 0.09375,0.125 0.462674,0.5201 0.955315,1.0294 1.4375,1.5312 0.13666,0.1426 0.268226,0.2967 0.40625,0.4375 0.433671,0.4414 0.863982,0.855 1.3125,1.2813 0.358669,0.3415 0.726926,0.6695 1.09375,1 0.300902,0.2709 0.599284,0.5483 0.90625,0.8125 0.348081,0.2995 0.707747,0.5852 1.0625,0.875 0.20623,0.1685 0.416249,0.3344 0.625,0.5 0.421605,0.334 0.850925,0.6484 1.28125,0.9687 0.01169,0.01 0.01955,0.023 0.03125,0.031 0.589171,0.4378 1.176554,0.8692 1.78125,1.2812 0.01207,0.01 0.01917,0.023 0.03125,0.031 0.193723,0.1318 0.398499,0.2459 0.59375,0.375 0.431167,0.286 0.872766,0.5699 1.3125,0.8437 1.067073,0.6621 2.143435,1.291 3.25,1.875 0.427789,0.2268 0.846738,0.4721 1.28125,0.6875 0.267259,0.132 0.54326,0.2476 0.8125,0.375 0.205374,0.098 0.418209,0.1862 0.625,0.2813 0.40231,0.1843 0.812344,0.357 1.21875,0.5312 2.217307,0.9537 4.516311,1.7527 6.875,2.4063 0.15748,0.044 0.310883,0.1139 0.46875,0.1562 0.0097,0 0.02154,0 0.03125,0 0.155627,0.042 0.312758,0.085 0.46875,0.125 0.590456,0.1518 1.183177,0.3055 1.78125,0.4375 1.236039,5.3119 5.999348,9.2813 11.6875,9.2813 5.642775,0 10.374407,-3.9082 11.65625,-9.1563 14.524403,-3.0325 27.74733,-11.9827 35.75,-25.8437 7.97009,-13.8046 9.13257,-29.66653 4.5625,-43.71877 3.58951,-3.7552 4.4469,-9.55596 1.71875,-14.28125 -2.74474,-4.75403 -8.2402,-6.90505 -13.3125,-5.625 -3.61062,-3.91614 -7.862624,-7.35256 -12.71875,-10.15625 -7.857056,-4.53627 -16.399024,-6.8291 -24.875,-7.15625 -0.324435,-0.0125 -0.644492,-0.0246 -0.96875,-0.0312 -0.522983,-0.0107 -1.040248,-0.0357 -1.5625,-0.0312 -0.08344,-4.7e-4 -0.166536,9e-5 -0.25,0 -0.14625,-1.5e-4 -0.29119,-10e-4 -0.4375,0 z m -0.15625,8.375 c 0.198551,-0.006 0.395019,0.003 0.59375,0 1.574787,0 3.122538,0.0942 4.65625,0.25 0.113959,0.0118 0.229908,0.0186 0.34375,0.0312 0.650316,0.071 1.295689,0.15192 1.9375,0.25 0.585103,0.0906 1.169211,0.19938 1.75,0.3125 0.05194,0.01 0.104373,0.0211 0.15625,0.0312 0.239357,0.0475 0.480221,0.10497 0.71875,0.15625 0.540549,0.11542 1.091729,0.20936 1.625,0.34375 0.15676,0.0397 0.31242,0.0837 0.46875,0.125 0.515887,0.13589 1.02268,0.28416 1.53125,0.4375 0.316037,0.0954 0.623539,0.21029 0.9375,0.3125 1.188255,0.38675 2.356802,0.80183 3.5,1.28125 0.04265,0.0179 0.0824,0.0445 0.125,0.0625 0.231655,0.098 0.457819,0.21081 0.6875,0.3125 0.745055,0.32902 1.490961,0.66219 2.21875,1.03125 0.207851,0.10574 0.419,0.20368 0.625,0.3125 0.472766,0.2489 0.941734,0.51544 1.40625,0.78125 0.324736,0.18653 0.649102,0.36827 0.96875,0.5625 0.62241,0.37669 1.238286,0.78012 1.84375,1.1875 0.583004,0.39388 1.186603,0.79905 1.75,1.21875 0.06515,0.0484 0.122577,0.10746 0.1875,0.15625 0.137193,0.10334 0.270266,0.20766 0.40625,0.3125 0.870474,0.66964 1.706025,1.35724 2.53125,2.09375 0.05474,0.0489 0.101742,0.10714 0.15625,0.15625 0.125509,0.11312 0.250609,0.22909 0.375,0.34375 0.770011,0.7094 1.499088,1.45844 2.21875,2.21875 -2.249967,3.6364 -2.506543,8.38118 -0.21875,12.34375 2.289964,3.96633 6.53414,6.10354 10.8125,5.96875 0.16102,0.5409 0.32746,1.0759 0.46875,1.625 0.0213,0.0826 0.0416,0.16739 0.0625,0.25 0.71346,2.83914 1.15928,5.79017 1.3125,8.8125 0.0101,0.19931 0.0238,0.39449 0.0312,0.59375 0.0193,0.50963 0.0288,1.01748 0.0312,1.53125 4.3e-4,0.11517 4.4e-4,0.22863 0,0.34375 -0.002,0.63091 -0.004,1.25038 -0.0312,1.875 -4.6e-4,0.0103 4.6e-4,0.021 0,0.0312 -0.0419,0.95218 -0.15055,1.90765 -0.25,2.84375 -0.10961,1.01333 -0.22967,2.02903 -0.40625,3.03125 -0.0258,0.14767 -0.0666,0.29033 -0.0937,0.4375 -0.18335,0.98372 -0.37791,1.96837 -0.625,2.93747 -0.0344,0.1351 -0.0582,0.2717 -0.0937,0.40625 -0.12426,0.4696 -0.26713,0.9408 -0.40625,1.4062 -0.0436,0.1455 -0.08,0.2927 -0.125,0.4375 -0.2293,0.7405 -0.51456,1.4592 -0.78125,2.1875 -0.17284,0.4701 -0.34351,0.9436 -0.53125,1.4063 -0.23837,0.5898 -0.48695,1.17 -0.75,1.75 -0.26196,0.5752 -0.52763,1.1566 -0.8125,1.7187 -0.19165,0.3799 -0.3913,0.7502 -0.59375,1.125 -0.0963,0.1774 -0.18268,0.3554 -0.28125,0.5313 -0.20903,0.3752 -0.43636,0.7553 -0.65625,1.125 -0.0931,0.1556 -0.18636,0.3143 -0.28125,0.4687 -0.56082,0.9175 -1.15359,1.808 -1.78125,2.6875 -0.10407,0.1453 -0.20677,0.2935 -0.3125,0.4375 -0.0172,0.024 -0.0453,0.039 -0.0625,0.062 -0.36221,0.4915 -0.71257,0.9614 -1.09375,1.4375 -0.391292,0.4904 -0.805682,0.9619 -1.21875,1.4375 -0.409746,0.471 -0.821534,0.9526 -1.25,1.4063 -0.328604,0.3479 -0.65917,0.6927 -1,1.0312 -0.98518,0.9795 -2.022872,1.8946 -3.09375,2.7814 -0.433398,0.358 -0.863274,0.7186 -1.3125,1.0625 -0.0064,0 -0.02487,0 -0.03125,0 -0.543538,0.4156 -1.089793,0.8247 -1.65625,1.2187 -1.026185,0.7168 -2.070737,1.3989 -3.15625,2.0313 -0.04044,0.024 -0.08446,0.039 -0.125,0.062 -0.503581,0.2913 -1.015739,0.5714 -1.53125,0.8436 -0.176627,0.093 -0.353919,0.1905 -0.53125,0.2814 -0.382314,0.1955 -0.767786,0.3775 -1.15625,0.5625 -0.311562,0.1485 -0.624037,0.2965 -0.9375,0.4375 -0.260873,0.117 -0.517808,0.2315 -0.78125,0.3436 -0.445424,0.1903 -0.894994,0.3876 -1.34375,0.5625 -1.761936,0.6852 -3.577286,1.2539 -5.4375,1.7189 -0.166579,0.042 -0.333184,0.085 -0.5,0.125 -2.017866,-3.7875 -6.002785,-6.375 -10.59375,-6.375 -4.531299,0 -8.489371,2.5115 -10.53125,6.2186 -3.984645,-1.0088 -7.889658,-2.5621 -11.625,-4.7186 -18.661373,-10.7742 -26.84221,-32.74518 -20.9375,-52.53132 4.28895,0.14619 8.548268,-1.99286 10.84375,-5.96875 2.295483,-3.97589 2.021087,-8.73375 -0.25,-12.375 8.258657,-8.73832 19.549719,-13.71153 31.21875,-14.21875 0.22957,-0.01 0.457651,-0.0247 0.6875,-0.0312 z"
       id="path3800"
       inkscape:connector-curvature="0" />
    <path
       style="fill:#ff0000;fill-opacity:0;stroke:url(#linearGradient3889);stroke-width:4;stroke-linecap:round;stroke-linejoin:miter;stroke-miterlimit:4;stroke-opacity:1;stroke-dasharray:none"
       d="M 63.688484,63.858402 22.03642,39.828365"
       id="path3864"
       inkscape:connector-curvature="0"
       transform="translate(0,924.36218)"
       sodipodi:nodetypes="cc" />
    <path
       sodipodi:nodetypes="cc"
       inkscape:connector-curvature="0"
       id="path3901"
       d="m 64.03642,988.22058 41.65206,-24.03003"
       style="fill:#ff0000;fill-opacity:0;stroke:url(#linearGradient3903);stroke-width:4;stroke-linecap:round;stroke-linejoin:miter;stroke-miterlimit:4;stroke-opacity:1;stroke-dasharray:none" />
    <path
       style="fill:#ff0000;fill-opacity:0;stroke:url(#linearGradient3907);stroke-width:3.99957991;stroke-linecap:round;stroke-linejoin:miter;stroke-miterlimit:4;stroke-opacity:1;stroke-dasharray:none"
       d="m 64.01521,988.28068 -0.01542,48.08172"
       id="path3905"
       inkscape:connector-curvature="0"
       sodipodi:nodetypes="cc" />
  </g>
</svg>
