<?xml version="1.0" encoding="UTF-8" standalone="no"?>
<!-- Created with Inkscape (http://www.inkscape.org/) -->

<svg
   xmlns:dc="http://purl.org/dc/elements/1.1/"
   xmlns:cc="http://creativecommons.org/ns#"
   xmlns:rdf="http://www.w3.org/1999/02/22-rdf-syntax-ns#"
   xmlns:svg="http://www.w3.org/2000/svg"
   xmlns="http://www.w3.org/2000/svg"
   xmlns:sodipodi="http://sodipodi.sourceforge.net/DTD/sodipodi-0.dtd"
   xmlns:inkscape="http://www.inkscape.org/namespaces/inkscape"
   width="64"
   height="64"
   id="svg2"
   version="1.1"
   inkscape:version="0.48.5 r10040"
   sodipodi:docname="SummonBird.svg"
   inkscape:export-filename="/home/cg/programming/orders/res/PlayerGoAllButton.png"
   inkscape:export-xdpi="90"
   inkscape:export-ydpi="90">
  <defs
     id="defs4">
    <clipPath
       id="clipPath3896"
       clipPathUnits="userSpaceOnUse">
      <g
         transform="translate(0.46013035,0.4532874)"
         id="g3898"
         inkscape:label="Layer 1">
        <path
           sodipodi:nodetypes="ccccccccccc"
           inkscape:connector-curvature="0"
           id="path3900"
           d="M 31.53987,1.1577492 40.623998,20.793325 61.389771,20.844973 47.002231,38.26814 53.988122,61.935636 31.539869,48.596033 9.091615,61.935635 16.077508,38.26814 1.6899683,20.844971 22.45574,20.793325 z"
           inkscape:transform-center-y="-2.9971004"
           style="fill:#ffffff;fill-opacity:1;stroke:#000000;stroke-width:2;stroke-linecap:round;stroke-linejoin:round;stroke-miterlimit:4;stroke-opacity:1"
           transform="translate(0,988.3622)" />
      </g>
    </clipPath>
    <linearGradient
       id="linearGradient3797">
      <stop
         id="stop3799"
         offset="0"
         style="stop-color:#ffff00;stop-opacity:1;" />
      <stop
         id="stop3801"
         offset="1"
         style="stop-color:#bbff00;stop-opacity:1;" />
    </linearGradient>
    <linearGradient
       id="linearGradient3805">
      <stop
         id="stop3807"
         offset="0"
         style="stop-color:#262500;stop-opacity:1;" />
      <stop
         id="stop3809"
         offset="1"
         style="stop-color:#699f00;stop-opacity:1;" />
    </linearGradient>
    <inkscape:path-effect
       is_visible="true"
       id="path-effect3954"
       effect="spiro" />
    <inkscape:path-effect
       is_visible="true"
       id="path-effect3958"
       effect="spiro" />
    <clipPath
       clipPathUnits="userSpaceOnUse"
       id="clipPath12441">
      <path
         style="fill:#ffffff;fill-opacity:1;stroke:#000000;stroke-width:2.76711774;stroke-linecap:round;stroke-linejoin:round;stroke-miterlimit:4;stroke-opacity:1"
         inkscape:transform-center-y="-2.9971004"
         d="m 32.350299,972.11318 12.568426,27.16697 28.73067,0.0719 -19.906009,24.10595 9.665392,32.7454 -31.058479,-18.4562 -31.0584824,18.4562 9.6653934,-32.7454 -19.9060074,-24.10595 28.7306674,-0.0719 z"
         id="path12443"
         inkscape:connector-curvature="0"
         sodipodi:nodetypes="ccccccccccc" />
    </clipPath>
  </defs>
  <sodipodi:namedview
     id="base"
     pagecolor="#ffffff"
     bordercolor="#666666"
     borderopacity="1.0"
     inkscape:pageopacity="0.0"
     inkscape:pageshadow="2"
     inkscape:zoom="6.2421875"
     inkscape:cx="11.199968"
     inkscape:cy="41.481425"
     inkscape:document-units="px"
     inkscape:current-layer="layer1"
     showgrid="false"
     width="64px"
     inkscape:window-width="1278"
     inkscape:window-height="1004"
     inkscape:window-x="0"
     inkscape:window-y="18"
     inkscape:window-maximized="0" />
  <metadata
     id="metadata7">
    <rdf:RDF>
      <cc:Work
         rdf:about="">
        <dc:format>image/svg+xml</dc:format>
        <dc:type
           rdf:resource="http://purl.org/dc/dcmitype/StillImage" />
        <dc:title />
      </cc:Work>
    </rdf:RDF>
  </metadata>
  <g
     inkscape:label="Layer 1"
     inkscape:groupmode="layer"
     id="layer1"
     transform="translate(0,-988.3622)">
    <path
       style="fill:#aaeeff;fill-opacity:1;stroke:#00309a;stroke-width:2;stroke-linecap:round;stroke-linejoin:round;stroke-miterlimit:4;stroke-opacity:1"
       inkscape:transform-center-y="-2.9971004"
       d="m 32,989.97313 9.084128,19.63557 20.765773,0.052 -14.38754,17.4231 6.985891,23.6675 -22.448253,-13.3396 -22.4482537,13.3396 6.9858927,-23.6675 -14.3875393,-17.4231 20.7657713,-0.052 z"
       id="path3790"
       inkscape:connector-curvature="0"
       sodipodi:nodetypes="ccccccccccc" />
    <g
       transform="matrix(0.72277371,0,0,0.72277371,8.618055,287.35528)"
       id="layer1-6"
       inkscape:label="Layer 1"
       clip-path="url(#clipPath12441)"
       style="stroke-width:2.7671178;stroke-miterlimit:4;stroke-dasharray:none">
      <path
         sodipodi:nodetypes="czccsccccc"
         inkscape:connector-curvature="0"
         id="path3912"
         transform="translate(0,988.36218)"
         d="m -3.1272895,20.85415 c 0,0 -5.7316336,28.906803 3.87385701,38.234814 C 10.352058,68.416974 37.627285,61.783535 37.627285,61.783535 43.639884,58.799426 49.08161,55.59817 50.09375,46.875 c 0,0 -12.339663,5.079004 -25.358902,3.590404 C 13.40771,49.170304 5.6090834,38.576505 5.6090834,38.576505 5.6090834,38.576505 14.074453,27.9287 25.4375,27 37.994365,25.9736 50.34375,30.21875 50.34375,30.21875 49.303409,14.23475 34.31312,9.5608852 22.96875,9.75 14.639325,10.136301 2.448512,16.37581 -3.1272895,20.85415 z"
         style="fill:#ffe64d;fill-opacity:1;stroke:#00309a;stroke-width:2.7671178;stroke-linecap:butt;stroke-linejoin:miter;stroke-opacity:1;stroke-miterlimit:4;stroke-dasharray:none"
         clip-path="none" />
      <path
         id="path3919"
         transform="translate(0,988.36218)"
         d="M -12.955914,-1.1168891 -6.0312013,29.342508 C -4.0215518,27.686004 4.2609041,15.676153 6.625,14.375 6.0232346,10.73224 5.1906917,6.5009572 4.28125,4.6875 3.4031976,2.9366341 2.0336402,1.0277086 0.90625,-0.22337782 z"
         style="fill:#9bbaff;fill-opacity:1;stroke:#00309a;stroke-width:2.7671178;stroke-linecap:butt;stroke-linejoin:miter;stroke-opacity:1;stroke-miterlimit:4;stroke-dasharray:none"
         inkscape:connector-curvature="0"
         sodipodi:nodetypes="cccscc" />
      <path
         transform="translate(0,988.36218)"
         inkscape:connector-curvature="0"
         id="path3946"
         d="M 46.930939,35.217232 59.992998,32.096209"
         style="fill:none;stroke:#00309a;stroke-width:2.7671178;stroke-linecap:butt;stroke-linejoin:miter;stroke-opacity:1;stroke-miterlimit:4;stroke-dasharray:none" />
      <path
         transform="translate(0,988.36218)"
         inkscape:connector-curvature="0"
         id="path3948"
         d="M 48.31806,39.378596 59.761811,38.338255"
         style="fill:none;stroke:#00309a;stroke-width:2.7671178;stroke-linecap:butt;stroke-linejoin:miter;stroke-opacity:1;stroke-miterlimit:4;stroke-dasharray:none" />
      <path
         transform="translate(0,988.36218)"
         inkscape:connector-curvature="0"
         id="path3950"
         d="m 47.6245,42.961993 12.715279,1.387121"
         style="fill:none;stroke:#00309a;stroke-width:2.7671178;stroke-linecap:butt;stroke-linejoin:miter;stroke-opacity:1;stroke-miterlimit:4;stroke-dasharray:none" />
      <path
         id="path3956"
         transform="translate(0,988.36218)"
         d="m 29.3125,32.4375 c -1.199165,0.0042 -2.4322,0.341949 -3.3125,1.15625 -0.784643,0.725816 -1.228268,1.757489 -1.625,2.75 -0.396732,0.992511 -0.787022,2.016174 -1.5,2.8125 C 22.202155,39.907751 21.253983,40.40257 20.25,40.5 19.246017,40.597432 18.223844,40.293811 17.46875,39.625 16.953011,39.168193 16.555846,38.55097 16.1875,37.96875 15.819153,37.38653 15.443382,36.80645 14.90625,36.375 14.128109,35.74996 13.119249,35.52495 12.125,35.4375 11.316854,35.366417 10.493542,35.360943 9.6875,35.28125 6.9867297,37.903258 5.375,40.125 5.375,40.125 c 0,0 0.9438466,1.024163 2.5,2.375 0.2725511,-0.152834 0.5252384,-0.320339 0.78125,-0.5 0.4110815,-0.288484 0.8135172,-0.595371 1.25,-0.84375 0.436485,-0.248379 0.938146,-0.44655 1.4375,-0.5 0.653364,-0.06993 1.298545,0.09085 1.875,0.40625 0.576454,0.315396 1.089736,0.763337 1.53125,1.25 0.883027,0.973326 1.571066,2.143391 2.59375,2.96875 0.962573,0.776846 2.201331,1.23137 3.4375,1.1875 1.236168,-0.04387 2.439251,-0.597053 3.25,-1.53125 0.607935,-0.700502 0.97363,-1.601324 1.375,-2.4375 0.401369,-0.836177 0.898632,-1.652426 1.65625,-2.1875 0.781304,-0.551802 1.769481,-0.711259 2.71875,-0.59375 0.94927,0.117509 1.843102,0.488153 2.6875,0.9375 0.65478,0.348442 1.305518,0.739532 2,1 0.694482,0.260468 1.48128,0.382972 2.1875,0.15625 0.405231,-0.130094 0.770621,-0.377752 1.0625,-0.6875 0.291879,-0.309747 0.491093,-0.689762 0.625,-1.09375 0.267814,-0.807975 0.19397,-1.698898 -0.09375,-2.5 -0.407227,-1.133846 -1.214649,-2.101865 -2.1875,-2.8125 C 35.089648,34.008116 33.980304,33.524608 32.84375,33.125 31.712465,32.727244 30.511665,32.4333 29.3125,32.4375 z"
         style="fill:#01309a;fill-opacity:1;stroke:#00309a;stroke-width:2.7671178;stroke-linecap:butt;stroke-linejoin:miter;stroke-opacity:1;stroke-miterlimit:4;stroke-dasharray:none"
         inkscape:connector-curvature="0" />
    </g>
    <path
       sodipodi:nodetypes="ccccccccccc"
       inkscape:connector-curvature="0"
       id="path13102"
       d="m 32,989.97313 9.084128,19.63557 20.765773,0.052 -14.38754,17.4231 6.985891,23.6675 -22.448253,-13.3396 -22.4482537,13.3396 6.9858927,-23.6675 -14.3875393,-17.4231 20.7657713,-0.052 z"
       inkscape:transform-center-y="-2.9971004"
       style="fill:#aaeeff;fill-opacity:0;stroke:#00309a;stroke-width:2;stroke-linecap:round;stroke-linejoin:round;stroke-miterlimit:4;stroke-opacity:1" />
  </g>
</svg>
