<?xml version="1.0" encoding="UTF-8" standalone="no"?>
<!-- Created with Inkscape (http://www.inkscape.org/) -->

<svg
   xmlns:dc="http://purl.org/dc/elements/1.1/"
   xmlns:cc="http://creativecommons.org/ns#"
   xmlns:rdf="http://www.w3.org/1999/02/22-rdf-syntax-ns#"
   xmlns:svg="http://www.w3.org/2000/svg"
   xmlns="http://www.w3.org/2000/svg"
   xmlns:sodipodi="http://sodipodi.sourceforge.net/DTD/sodipodi-0.dtd"
   xmlns:inkscape="http://www.inkscape.org/namespaces/inkscape"
   width="128"
   height="128"
   id="svg2816"
   version="1.1"
   inkscape:version="0.91 r13725"
   sodipodi:docname="WormOrderHide.svg"
   inkscape:export-filename="/home/cg/programming/orders/res/WormOrderHide.png"
   inkscape:export-xdpi="90"
   inkscape:export-ydpi="90">
  <defs
     id="defs2818">
    <inkscape:perspective
       sodipodi:type="inkscape:persp3d"
       inkscape:vp_x="0 : 32 : 1"
       inkscape:vp_y="0 : 1000 : 0"
       inkscape:vp_z="64 : 32 : 1"
       inkscape:persp3d-origin="32 : 21.333333 : 1"
       id="perspective2824" />
    <inkscape:path-effect
       effect="spiro"
       id="path-effect3824"
       is_visible="true" />
    <inkscape:path-effect
       is_visible="true"
       id="path-effect3822"
       effect="spiro" />
    <inkscape:path-effect
       effect="spiro"
       id="path-effect3820"
       is_visible="true" />
    <inkscape:path-effect
       is_visible="true"
       id="path-effect3818"
       effect="spiro" />
    <inkscape:path-effect
       effect="spiro"
       id="path-effect3808"
       is_visible="true" />
    <inkscape:path-effect
       is_visible="true"
       id="path-effect3804"
       effect="spiro" />
    <inkscape:path-effect
       effect="spiro"
       id="path-effect3800"
       is_visible="true" />
    <inkscape:path-effect
       is_visible="true"
       id="path-effect3792"
       effect="spiro" />
    <inkscape:path-effect
       is_visible="true"
       id="path-effect3788"
       effect="spiro" />
    <inkscape:path-effect
       is_visible="true"
       id="path-effect3012"
       effect="spiro" />
    <inkscape:perspective
       id="perspective2824-9"
       inkscape:persp3d-origin="32 : 21.333333 : 1"
       inkscape:vp_z="64 : 32 : 1"
       inkscape:vp_y="0 : 1000 : 0"
       inkscape:vp_x="0 : 32 : 1"
       sodipodi:type="inkscape:persp3d" />
  </defs>
  <sodipodi:namedview
     id="base"
     pagecolor="#ffffff"
     bordercolor="#666666"
     borderopacity="1.0"
     inkscape:pageopacity="0.0"
     inkscape:pageshadow="2"
     inkscape:zoom="1.84375"
     inkscape:cx="80.641235"
     inkscape:cy="5.5398108"
     inkscape:current-layer="layer1"
     showgrid="true"
     inkscape:document-units="px"
     inkscape:grid-bbox="true"
     inkscape:window-width="1282"
     inkscape:window-height="1011"
     inkscape:window-x="-1"
     inkscape:window-y="16"
     inkscape:window-maximized="1"
     inkscape:snap-grids="true"
     showguides="false" />
  <metadata
     id="metadata2821">
    <rdf:RDF>
      <cc:Work
         rdf:about="">
        <dc:format>image/svg+xml</dc:format>
        <dc:type
           rdf:resource="http://purl.org/dc/dcmitype/StillImage" />
        <dc:title></dc:title>
      </cc:Work>
    </rdf:RDF>
  </metadata>
  <g
     id="layer1"
     inkscape:label="Layer 1"
     inkscape:groupmode="layer"
     transform="translate(0,64)">
    <path
       style="fill:#00ff00;fill-opacity:1;fill-rule:evenodd;stroke:#008000;stroke-width:4;stroke-linecap:butt;stroke-linejoin:miter;stroke-miterlimit:4;stroke-dasharray:none;stroke-opacity:1"
       d="m 79.865234,15.041016 c -10.9667,6.221987 -19.475567,18.73087 -21.955078,30.886718 -2.479511,12.155849 -3.898285,18.49984 -4.011718,28.822266 -0.113434,10.322426 2.001953,27.98438 2.001953,27.98438 0,-1e-5 -8.778209,-20.908786 -8.503907,-35.058599 0.274302,-14.149814 0.720249,-17.34539 1.011719,-26.117187 0.291471,-8.771797 0.208985,-25.048828 0.208985,-25.048828 C 27.98157,37.973738 25.996144,60.410598 25.638672,81.65625 c -0.357473,21.24565 -0.119141,14.57617 -0.119141,14.57617 0,0 -5.784953,-7.875024 -6.919922,-22.271482 -1.134968,-14.396458 0.0293,-51.015626 0.0293,-51.015626 0,0 -11.4396881,19.036598 -16.128906,32.140626 l 0,45.662112 C 2.5,114.46018 13.767253,125.5 27.761719,125.5 l 72.476561,0 C 114.23275,125.5 125.5,114.46018 125.5,100.74805 l 0,-19.250003 c -0.73501,-6.04725 -1.25547,-11.185527 -1.35352,-14.330078 -0.46073,-14.776712 -5.57812,-37.550781 -5.57812,-37.550781 0,0 -8.39405,15.512287 -10.93555,27.851562 -2.5415,12.339275 -4.1582,39.51172 -4.1582,39.51172 0,0 -5.372339,-23.239576 -3.621094,-37.496095 1.751244,-14.256519 2.722654,-40.027344 2.722654,-40.027344 0,0 -11.570539,7.909143 -15.902342,17.650391 -4.331803,9.741248 -8.825778,31.923651 -9.390625,43.898437 -0.564848,11.974786 1.125,17.007811 1.125,17.007811 0,0 -4.612658,1.818265 -5.541015,-10.630858 -0.928357,-12.449122 0.420878,-31.091401 0.861328,-37.011718 0.44045,-5.920317 1.975206,-24.03934 6.136718,-35.330078 z"
       transform="translate(0,-64)"
       id="rect2826"
       inkscape:connector-curvature="0"
       sodipodi:nodetypes="csscsscscsccsssscscscscsscssc" />
    <path
       sodipodi:nodetypes="cssscsc"
       inkscape:connector-curvature="0"
       style="fill:#ffffff;fill-opacity:1;stroke:#000000;stroke-width:4.83;stroke-linecap:round;stroke-linejoin:miter;stroke-miterlimit:4;stroke-dasharray:9.66,9.66;stroke-dashoffset:0;stroke-opacity:1"
       d="m 40.5478,11.108899 c -3.680282,3.757652 -3.827108,8.389975 -3.827108,13.555422 0,12.17371 12.22416,22.027568 27.279308,22.027568 15.055147,0 27.279308,-9.853858 27.279308,-22.027568 0,-5.165447 -0.146826,-9.79777 -3.827108,-13.555422 0,0 -15.831572,1.360814 -23.4522,1.360814 -7.620627,0 -23.452199,-1.360814 -23.4522,-1.360814 z"
       id="path2999" />
    <ellipse
       style="fill:#000000;fill-opacity:1;stroke:#000000;stroke-width:7.41404867;stroke-linecap:round;stroke-linejoin:miter;stroke-miterlimit:4;stroke-dasharray:none;stroke-opacity:1"
       id="path3008"
       cx="63.99971"
       cy="26.831255"
       rx="10.697924"
       ry="7.8689771" />
  </g>
</svg>
